<svg xmlns="http://www.w3.org/2000/svg">
    <symbol id="icon" viewBox="0 0 32 39">
    <path d="M5.96954 6.94641C6.61481 6.94641 7.14111 6.42011 7.14111 5.77484C7.14111 5.12958 6.61481 4.60327 5.96954 4.60327C5.32428 4.60327 4.79797 5.12958 4.79797 5.77484C4.79797 6.42371 5.32428 6.94641 5.96954 6.94641Z" fill="#85B839"/>
    <path d="M9.59605 24.7833V27.0327C11.4201 25.7098 13.5974 24.9852 15.8937 24.9852C18.1864 24.9852 20.3673 25.7098 22.1913 27.0327V24.7833C22.1913 22.8944 23.1394 21.2253 24.5777 20.2196C24.4552 17.8476 22.4941 15.9551 20.0933 15.9551H11.6941C9.29325 15.9551 7.33222 17.8476 7.20966 20.2196C8.64798 21.2253 9.59605 22.8944 9.59605 24.7833Z" fill="#85B839"/>
    <path d="M22.8222 12.5305H8.91473V14.4267H22.8222V12.5305Z" fill="#85B839"/>
    <path d="M22.1913 29.0262C20.4754 27.4185 18.2548 26.5281 15.8937 26.5281C13.5325 26.5281 11.3119 27.4185 9.59601 29.0262V31.081H22.1913V29.0262Z" fill="#85B839"/>
    <path d="M25.551 6.94641C26.1963 6.94641 26.7226 6.42011 26.7226 5.77484C26.7226 5.12958 26.1963 4.60327 25.551 4.60327C24.9058 4.60327 24.3795 5.12958 24.3795 5.77484C24.3795 6.42371 24.9058 6.94641 25.551 6.94641Z" fill="#85B839"/>
    <path d="M15.9117 3.77786C16.9535 3.77786 17.8006 2.93073 17.8006 1.88893C17.8006 0.847135 16.9535 0 15.9117 0C14.8699 0 14.0228 0.847135 14.0228 1.88893C14.0228 2.93073 14.8699 3.77786 15.9117 3.77786Z" fill="#85B839"/>
    <path d="M27.7608 20.7566C25.5402 20.7566 23.7342 22.5626 23.7342 24.7832V32.6201H8.05319V24.7832C8.05319 22.5626 6.24717 20.7566 4.0266 20.7566C1.80602 20.7566 0 22.5626 0 24.7832C0 27.0038 1.80602 28.8098 4.0266 28.8098H4.79803V35.8789H26.9894V28.8098H27.7608C29.9814 28.8098 31.7874 27.0038 31.7874 24.7832C31.7874 22.5626 29.9814 20.7566 27.7608 20.7566ZM4.0266 26.0341C3.33447 26.0341 2.77572 25.4753 2.77572 24.7832C2.77572 24.0911 3.33807 23.5323 4.0266 23.5323C4.71872 23.5323 5.27747 24.0911 5.27747 24.7832C5.27747 25.4753 4.71872 26.0341 4.0266 26.0341ZM27.7608 26.0341C27.0687 26.0341 26.5099 25.4753 26.5099 24.7832C26.5099 24.0911 27.0687 23.5323 27.7608 23.5323C28.4529 23.5323 29.0117 24.0911 29.0117 24.7832C29.0117 25.4753 28.4529 26.0341 27.7608 26.0341Z" fill="#85B839"/>
    <path d="M8.69839 10.9875H23.0348C23.8171 10.1404 24.383 9.14546 24.6966 8.0604C23.7702 8.54706 22.732 8.81742 21.665 8.81742C19.138 8.81742 16.9499 7.37549 15.8648 5.27026C14.7797 7.37188 12.588 8.81742 10.0646 8.81742C8.99398 8.81742 7.9594 8.55787 7.03656 8.07482C7.35739 9.15267 7.91974 10.144 8.69839 10.9875Z" fill="#85B839"/>
    <path d="M9.59609 37.4219H8.05322V38.9647H9.59609V37.4219Z" fill="#85B839"/>
    <path d="M23.7342 37.4219H22.1913V38.9647H23.7342V37.4219Z" fill="#85B839"/>
    </symbol>
    <symbol id="Search_icon" viewBox="0 0 16 16">
    <path d="M12.7 11.3C13.6 10.1 14.1 8.7 14.1 7.1C14.1 3.2 11 0 7.1 0C3.2 0 0 3.2 0 7.1C0 11 3.2 14.2 7.1 14.2C8.7 14.2 10.2 13.7 11.3 12.8L14.3 15.8C14.5 16 14.8 16.1 15 16.1C15.2 16.1 15.5 16 15.7 15.8C16.1 15.4 16.1 14.8 15.7 14.4L12.7 11.3ZM7.1 12.1C4.3 12.1 2 9.9 2 7.1C2 4.3 4.3 2 7.1 2C9.9 2 12.2 4.3 12.2 7.1C12.2 9.9 9.9 12.1 7.1 12.1Z" fill="white"/>
    </symbol>
    <symbol id="shop" viewBox="0 0 24 24">
    <path d="M21 6H18C18 4.4087 17.3679 2.88258 16.2426 1.75736C15.1174 0.632141 13.5913 0 12 0C10.4087 0 8.88258 0.632141 7.75736 1.75736C6.63214 2.88258 6 4.4087 6 6H3C2.20435 6 1.44129 6.31607 0.87868 6.87868C0.31607 7.44129 0 8.20435 0 9L0 19C0.00158786 20.3256 0.528882 21.5964 1.46622 22.5338C2.40356 23.4711 3.67441 23.9984 5 24H19C20.3256 23.9984 21.5964 23.4711 22.5338 22.5338C23.4711 21.5964 23.9984 20.3256 24 19V9C24 8.20435 23.6839 7.44129 23.1213 6.87868C22.5587 6.31607 21.7956 6 21 6ZM12 2C13.0609 2 14.0783 2.42143 14.8284 3.17157C15.5786 3.92172 16 4.93913 16 6H8C8 4.93913 8.42143 3.92172 9.17157 3.17157C9.92172 2.42143 10.9391 2 12 2ZM22 19C22 19.7956 21.6839 20.5587 21.1213 21.1213C20.5587 21.6839 19.7956 22 19 22H5C4.20435 22 3.44129 21.6839 2.87868 21.1213C2.31607 20.5587 2 19.7956 2 19V9C2 8.73478 2.10536 8.48043 2.29289 8.29289C2.48043 8.10536 2.73478 8 3 8H6V10C6 10.2652 6.10536 10.5196 6.29289 10.7071C6.48043 10.8946 6.73478 11 7 11C7.26522 11 7.51957 10.8946 7.70711 10.7071C7.89464 10.5196 8 10.2652 8 10V8H16V10C16 10.2652 16.1054 10.5196 16.2929 10.7071C16.4804 10.8946 16.7348 11 17 11C17.2652 11 17.5196 10.8946 17.7071 10.7071C17.8946 10.5196 18 10.2652 18 10V8H21C21.2652 8 21.5196 8.10536 21.7071 8.29289C21.8946 8.48043 22 8.73478 22 9V19Z" fill="#555555"/>
    </symbol>
    <symbol id="Notification" viewBox="0 0 22 24">
     <path d="M9 12H7v2h2v-2zm5-2h1c.552 0 1 .444 1 1 0 .552-.445 1-1 1h-4v2a2 2 0 0 1-1.998 2H6.998A1.994 1.994 0 0 1 5 14v-2H1c-.552 0-1-.444-1-1 0-.552.445-1 1-1h1V2.009A2.01 2.01 0 0 1 4.009 0h7.982A2.01 2.01 0 0 1 14 2.009V10zM4 2.997V10h8V2.997c0-.544-.446-.997-.997-.997H4.997C4.453 2 4 2.446 4 2.997z" fill-rule="evenodd"/>
    </symbol>
    <symbol id ="Acc" viewBox="0 0 22 24">
    <path d="M14.6182 11.1284C16.1539 10.0084 17.1539 8.19581 17.1539 6.15384C17.1539 2.76061 14.3933 0 11.0001 0C7.60685 0 4.84624 2.76061 4.84624 6.15384C4.84624 8.19581 5.84622 10.0084 7.38194 11.1284C3.56444 12.5892 0.846252 16.2905 0.846252 20.6154C0.846252 22.4817 2.36458 24 4.23086 24H17.7693C19.6356 24 21.1539 22.4817 21.1539 20.6154C21.1539 16.2905 18.4357 12.5892 14.6182 11.1284ZM6.69241 6.15384C6.69241 3.77859 8.62483 1.84617 11.0001 1.84617C13.3753 1.84617 15.3078 3.77859 15.3078 6.15384C15.3078 8.52909 13.3753 10.4616 11.0001 10.4616C8.62483 10.4616 6.69241 8.52909 6.69241 6.15384ZM17.7693 22.1538H4.23086C3.38257 22.1538 2.69242 21.4637 2.69242 20.6153C2.69242 16.0344 6.41918 12.3076 11.0001 12.3076C15.5811 12.3076 19.3078 16.0344 19.3078 20.6153C19.3078 21.4637 18.6176 22.1538 17.7693 22.1538Z" fill="#555555"/>
    </symbol>
    <symbol id="bottom" viewBox="0 0 24 24">
    <path d="M3 13H15" stroke="white" stroke-width="2.5" stroke-linecap="round" stroke-linejoin="round"/>
    <path d="M3 6H21" stroke="white" stroke-width="2.5" stroke-linecap="round" stroke-linejoin="round"/>
    <path d="M3 20H9" stroke="white" stroke-width="2.5" stroke-linecap="round" stroke-linejoin="round"/>
    </symbol>
    <symbol id="free" viewBox="0 0 58 58">
    <path d="M53.9398 32.5048L52.4378 26.4969C52.8484 26.4097 53.1565 26.0454 53.1565 25.6089V24.6402C53.1565 22.537 51.4454 20.826 49.3424 20.826H42.5011V18.8281C42.5011 17.7932 41.6592 16.9513 40.6242 16.9513H27.9034L35.6337 13.8591C36.0994 13.6729 36.3259 13.1443 36.1397 12.6786C35.9534 12.213 35.4252 11.9864 34.9592 12.1727L28.6297 14.7044C30.5584 13.4669 32.4666 12.105 33.1931 11.1525C34.6074 9.2982 34.2492 6.63903 32.3949 5.22472C30.5406 3.81029 27.8815 4.1686 26.4671 6.0229C25.4338 7.37797 24.0703 11.1855 23.1879 13.8685C22.3054 11.1857 20.942 7.37797 19.9086 6.0229C18.4944 4.1686 15.8351 3.81051 13.9808 5.22472C12.1265 6.63892 11.7684 9.29808 13.1827 11.1525C13.9091 12.1051 15.8172 13.4669 17.7461 14.7044L11.4166 12.1727C10.9507 11.9861 10.4223 12.2129 10.2361 12.6786C10.0497 13.1443 10.2763 13.6729 10.742 13.8591L18.4723 16.9513H5.75152C4.71658 16.9513 3.87467 17.7932 3.87467 18.8281V35.2958C3.87467 35.7973 4.28124 36.204 4.78285 36.204C5.28434 36.204 5.69102 35.7974 5.69102 35.2958V18.8281C5.69102 18.7947 5.7181 18.7676 5.75152 18.7676H40.6241C40.6575 18.7676 40.6846 18.7947 40.6846 18.8281V35.296C40.6846 35.7975 41.0912 36.2042 41.5928 36.2042C42.0943 36.2042 42.501 35.7976 42.501 35.296V34.2665H53.2135C53.2145 34.2665 53.2153 34.2667 53.2164 34.2667C53.2174 34.2667 53.2183 34.2666 53.2193 34.2666C54.5374 34.2676 55.6567 35.1329 56.0409 36.3251H53.217C52.7155 36.3251 52.3089 36.7316 52.3089 37.2332V39.1706C52.3089 40.7396 53.5853 42.0161 55.1544 42.0161H56.1836V46.0119H53.809C53.029 43.7596 50.8879 42.1371 48.3736 42.1371C45.8593 42.1371 43.7181 43.7595 42.9381 46.0119H42.5009V39.1705C42.5009 38.669 42.0943 38.2623 41.5927 38.2623C41.0912 38.2623 40.6845 38.6689 40.6845 39.1705V46.0117H21.8426C21.0625 43.7595 18.9214 42.137 16.4071 42.137C13.8928 42.137 11.7516 43.7594 10.9716 46.0117H5.75152C5.7181 46.0117 5.69102 45.9847 5.69102 45.9513V43.9533H9.6263C10.1278 43.9533 10.5345 43.5467 10.5345 43.0451C10.5345 42.5435 10.1279 42.137 9.6263 42.137H0.908176C0.40668 42.137 0 42.5435 0 43.0451C0 43.5467 0.406566 43.9533 0.908176 43.9533H3.87479V45.9513C3.87479 46.9862 4.71669 47.8281 5.75163 47.8281H10.6572C10.6569 47.8483 10.6556 47.8683 10.6556 47.8886C10.6556 51.0599 13.2358 53.6401 16.4071 53.6401C19.5784 53.6401 22.1586 51.0599 22.1586 47.8886C22.1586 47.8682 22.1572 47.8483 22.157 47.8281H42.6235C42.6233 47.8483 42.622 47.8683 42.622 47.8886C42.622 51.0599 45.2022 53.6401 48.3735 53.6401C51.5448 53.6401 54.125 51.0599 54.125 47.8886C54.125 47.8682 54.1236 47.8483 54.1234 47.8281H57.0917C57.5932 47.8281 57.9999 47.4215 57.9999 46.9199V37.2331C58 34.8413 56.2354 32.8541 53.9398 32.5048ZM19.5863 13.7138C16.004 11.4877 14.9415 10.4635 14.6269 10.051C13.82 8.99302 14.0243 7.47584 15.0824 6.66894C15.5185 6.33635 16.0326 6.1756 16.5429 6.1756C17.2704 6.1756 17.9902 6.50253 18.4645 7.12444C19.343 8.27629 20.7188 12.1531 21.6271 14.9467C21.0141 14.5858 20.3095 14.1634 19.5863 13.7138ZM24.7489 14.9466C25.6572 12.1531 27.033 8.2764 27.9114 7.12433C28.7183 6.0664 30.2354 5.86215 31.2934 6.66894C32.3514 7.47584 32.5557 8.99302 31.7489 10.051C31.4343 10.4634 30.3717 11.4877 26.7897 13.7137C26.0666 14.1632 25.362 14.5857 24.7489 14.9466ZM42.5011 22.6422H49.3424C50.444 22.6422 51.3403 23.5384 51.3403 24.6401V24.7006H42.5011V22.6422ZM42.5011 32.4502V26.5169H50.5707L52.054 32.4502H42.5011ZM16.4071 51.8239C14.2372 51.8239 12.4718 50.0585 12.4718 47.8886C12.4718 45.7187 14.2372 43.9533 16.4071 43.9533C18.577 43.9533 20.3424 45.7187 20.3424 47.8886C20.3424 50.0585 18.577 51.8239 16.4071 51.8239ZM48.3737 51.8239C46.2038 51.8239 44.4384 50.0585 44.4384 47.8886C44.4384 45.7187 46.2038 43.9533 48.3737 43.9533C50.5436 43.9533 52.309 45.7187 52.309 47.8886C52.309 50.0585 50.5436 51.8239 48.3737 51.8239ZM56.1838 40.1996H55.1545C54.5869 40.1996 54.1252 39.7379 54.1252 39.1703V38.1411H56.1836V40.1996H56.1838Z" fill="#7AC751"/>
    <path d="M16.4075 46.0117C15.3725 46.0117 14.5306 46.8536 14.5306 47.8886C14.5306 48.9235 15.3725 49.7654 16.4075 49.7654C17.4424 49.7654 18.2843 48.9235 18.2843 47.8886C18.2843 46.8536 17.4424 46.0117 16.4075 46.0117Z" fill="#7AC751"/>
    <path d="M48.3734 46.0117C47.3385 46.0117 46.4966 46.8536 46.4966 47.8886C46.4966 48.9235 47.3385 49.7654 48.3734 49.7654C49.4084 49.7654 50.2503 48.9235 50.2503 47.8886C50.2503 46.8536 49.4084 46.0117 48.3734 46.0117Z" fill="#7AC751"/>
    <path d="M37.7185 42.137H24.1569C23.6554 42.137 23.2487 42.5435 23.2487 43.0451C23.2487 43.5467 23.6553 43.9533 24.1569 43.9533H37.7185C38.22 43.9533 38.6266 43.5467 38.6266 43.0451C38.6266 42.5435 38.2201 42.137 37.7185 42.137Z" fill="#7AC751"/>
    <path d="M14.4702 38.2622H2.84598C2.34448 38.2622 1.93781 38.6688 1.93781 39.1704C1.93781 39.672 2.34437 40.0786 2.84598 40.0786H14.4702C14.9717 40.0786 15.3784 39.672 15.3784 39.1704C15.3784 38.6688 14.9717 38.2622 14.4702 38.2622Z" fill="#7AC751"/>
    <path d="M14.4697 24.7004H10.5949C10.0934 24.7004 9.68677 25.107 9.68677 25.6086V33.3581C9.68677 33.8596 10.0933 34.2663 10.5949 34.2663C11.0966 34.2663 11.5031 33.8597 11.5031 33.3581V30.3915H13.5011C14.0026 30.3915 14.4092 29.9849 14.4092 29.4833C14.4092 28.9817 14.0027 28.5751 13.5011 28.5751H11.5031V26.5168H14.4697C14.9712 26.5168 15.3779 26.1102 15.3779 25.6086C15.3778 25.1071 14.9712 24.7004 14.4697 24.7004Z" fill="#7AC751"/>
    <path d="M21.6164 30.8173C22.5253 30.222 23.1273 29.1954 23.1273 28.0303C23.1273 26.1942 21.6335 24.7004 19.7974 24.7004H17.3756C16.8741 24.7004 16.4675 25.107 16.4675 25.6086V33.3581C16.4675 33.8596 16.874 34.2663 17.3756 34.2663C17.8773 34.2663 18.2838 33.8597 18.2838 33.3581V31.3601H19.7957L21.4634 33.8617C21.6384 34.1242 21.9263 34.2663 22.2198 34.2663C22.393 34.2663 22.5679 34.2169 22.7226 34.1136C23.1401 33.8354 23.2528 33.2715 22.9745 32.8543L21.6164 30.8173ZM19.7974 29.5439H18.2838V26.5168H19.7974C20.632 26.5168 21.3109 27.1957 21.3109 28.0303C21.3109 28.865 20.632 29.5439 19.7974 29.5439Z" fill="#7AC751"/>
    <path d="M28.9997 32.45H26.0331V30.3885C26.0532 30.3899 26.0732 30.3916 26.0936 30.3916H28.031C28.5325 30.3916 28.9391 29.985 28.9391 29.4834C28.9391 28.9818 28.5326 28.5752 28.031 28.5752H26.0936C26.0731 28.5752 26.0532 28.5769 26.0331 28.5783V26.5168H28.9997C29.5012 26.5168 29.9079 26.1102 29.9079 25.6086C29.9079 25.1071 29.5014 24.7004 28.9997 24.7004H25.125C24.6235 24.7004 24.2168 25.107 24.2168 25.6086V33.3581C24.2168 33.8596 24.6234 34.2663 25.125 34.2663H28.9997C29.5012 34.2663 29.9079 33.8597 29.9079 33.3581C29.9079 32.8565 29.5012 32.45 28.9997 32.45Z" fill="#7AC751"/>
    <path d="M35.781 32.45H32.8144V30.3916H33.8437C34.3452 30.3916 34.7518 29.985 34.7518 29.4834C34.7518 28.9818 34.3453 28.5752 33.8437 28.5752H32.8144V26.5168H35.781C36.2825 26.5168 36.6892 26.1102 36.6892 25.6086C36.6892 25.1071 36.2826 24.7004 35.781 24.7004H31.9062C31.4047 24.7004 30.998 25.107 30.998 25.6086V33.3581C30.998 33.8596 31.4046 34.2663 31.9062 34.2663H35.781C36.2825 34.2663 36.6892 33.8597 36.6892 33.3581C36.6892 32.8565 36.2825 32.45 35.781 32.45Z" fill="#7AC751"/>
    </symbol>
    <symbol id="gift" viewBox="0 0 60 60">
    <mask id="path-1-outside-1_2_225" maskUnits="userSpaceOnUse" x="0" y="0" width="60" height="60" fill="black">
    <rect fill="white" width="60" height="60"/>
    <path d="M7.42459 18.7252C6.4521 19.215 5.83715 20.2095 5.83346 21.2984V28.0651C5.83346 29.1328 6.69904 29.9984 7.76679 29.9984V56.0984C7.76679 57.7 9.06517 58.9984 10.6668 58.9984H49.3335C50.9351 58.9984 52.2335 57.7 52.2335 56.0984V29.9984C53.3012 29.9984 54.1668 29.1328 54.1668 28.0651V21.2984C54.1631 20.2095 53.5482 19.215 52.5757 18.7252C56.597 16.1471 58.7942 11.334 58.917 11.0576C59.0499 10.7585 59.0224 10.4126 58.8441 10.1382C58.6657 9.86388 58.3607 9.69838 58.0335 9.69842H54.1668V5.83175C54.167 5.4564 53.9498 5.11488 53.6099 4.95578C53.2699 4.79668 52.8686 4.84875 52.5805 5.08935L49.3528 7.78442C47.881 5.10025 45.6566 2.90483 42.9535 1.46822C42.3384 1.12871 41.6405 0.968309 40.9389 1.00518C34.4642 1.41022 31.3631 6.64278 30.0001 10.1818C28.6313 6.64665 25.5303 1.42762 19.0613 1.02355C18.3601 0.984053 17.6619 1.14285 17.0468 1.48175C14.3484 2.91585 12.1268 5.10584 10.6542 7.78345L7.41879 5.08838C7.13054 4.84829 6.72939 4.79665 6.38973 4.95592C6.05007 5.11519 5.83322 5.4566 5.83346 5.83175V9.69842H1.96679C1.63957 9.69838 1.33454 9.86388 1.1562 10.1382C0.977856 10.4126 0.950408 10.7585 1.08326 11.0576C1.20603 11.334 3.40326 16.1471 7.42459 18.7252V18.7252ZM23.2335 20.3318V28.0651H7.76679V21.2984C7.76679 20.7645 8.19958 20.3318 8.73346 20.3318H23.2335ZM25.0991 14.6439C22.8524 12.7087 21.2871 10.1027 20.6341 7.21022C23.6878 8.54808 25.2838 12.1915 25.8618 13.8135C25.5762 14.0597 25.3202 14.3384 25.0991 14.6439ZM26.1335 17.4318C26.1335 15.8301 27.4318 14.5318 29.0335 14.5318H30.9668C32.5684 14.5318 33.8668 15.8301 33.8668 17.4318V18.3984H26.1335V17.4318ZM34.8335 28.0651H25.1668V20.3318H34.8335V28.0651ZM34.1384 13.8135C34.7184 12.1915 36.3134 8.54808 39.3662 7.21022C38.7137 10.1029 37.1483 12.709 34.9011 14.6439C34.68 14.3384 34.424 14.0597 34.1384 13.8135ZM9.70013 56.0984V29.9984H25.1668V57.0651H10.6668C10.1329 57.0651 9.70013 56.6323 9.70013 56.0984ZM27.1001 57.0651V29.9984H32.9001V57.0651H27.1001ZM50.3001 56.0984C50.3001 56.6323 49.8673 57.0651 49.3335 57.0651H34.8335V29.9984H50.3001V56.0984ZM51.2668 20.3318C51.8007 20.3318 52.2335 20.7645 52.2335 21.2984V28.0651H36.7668V20.3318H51.2668ZM53.2001 11.6318H56.4327C55.089 13.945 51.9145 18.3984 47.4001 18.3984H45.2348C46.9031 17.036 48.3486 15.4216 49.5191 13.6134C50.2791 12.4468 50.4953 11.0078 50.1116 9.66942L52.2335 7.89848V10.6651C52.2335 11.199 52.6663 11.6318 53.2001 11.6318ZM41.0598 2.93175C41.4001 2.91682 41.7377 2.99788 42.0342 3.16568C43.459 3.93902 46.9139 6.14785 48.2131 10.0435C48.5007 10.8848 48.3856 11.8115 47.9009 12.5569C46.8201 14.2089 44.5697 17.1331 41.5325 18.3984H35.8001V17.4318C35.8 17.11 35.7676 16.7891 35.7035 16.4738C39.6668 13.6705 41.0414 8.79072 41.4551 6.74525C41.5562 6.25263 41.391 5.74313 41.0201 5.40352C40.646 5.05359 40.1155 4.92619 39.6233 5.06808C35.4193 6.25225 33.2926 10.5336 32.4284 12.8498C32.0306 12.7206 31.6175 12.6442 31.1998 12.6226C31.9141 9.94975 34.3443 3.35515 41.0598 2.93175V2.93175ZM11.7872 10.0571C13.0835 6.16622 16.5403 3.95642 17.9651 3.18695C18.2625 3.02065 18.6 2.9397 18.9405 2.95302C25.6501 3.37255 28.0813 9.94782 28.8005 12.6197C28.3834 12.6414 27.971 12.7178 27.5738 12.8469C26.7096 10.5269 24.5829 6.24935 20.3789 5.06518C19.8867 4.92488 19.3569 5.05209 18.9821 5.40062C18.6122 5.74084 18.4482 6.25025 18.55 6.74235C18.9589 8.79072 20.3335 13.6734 24.2968 16.4738C24.2326 16.7891 24.2002 17.11 24.2001 17.4318V18.3984H18.4678C15.4305 17.135 13.1782 14.2137 12.0994 12.5627C11.6156 11.8199 11.5005 10.8958 11.7872 10.0571ZM6.80013 11.6318C7.334 11.6318 7.76679 11.199 7.76679 10.6651V7.89462L9.89346 9.66555C9.50515 11.0066 9.72007 12.4503 10.4822 13.6202C11.6516 15.426 13.0958 17.0381 14.7626 18.3984H12.6001C8.09836 18.3984 4.91899 13.946 3.57049 11.6318H6.80013Z"/>
    </mask>
    <path d="M7.42459 18.7252C6.4521 19.215 5.83715 20.2095 5.83346 21.2984V28.0651C5.83346 29.1328 6.69904 29.9984 7.76679 29.9984V56.0984C7.76679 57.7 9.06517 58.9984 10.6668 58.9984H49.3335C50.9351 58.9984 52.2335 57.7 52.2335 56.0984V29.9984C53.3012 29.9984 54.1668 29.1328 54.1668 28.0651V21.2984C54.1631 20.2095 53.5482 19.215 52.5757 18.7252C56.597 16.1471 58.7942 11.334 58.917 11.0576C59.0499 10.7585 59.0224 10.4126 58.8441 10.1382C58.6657 9.86388 58.3607 9.69838 58.0335 9.69842H54.1668V5.83175C54.167 5.4564 53.9498 5.11488 53.6099 4.95578C53.2699 4.79668 52.8686 4.84875 52.5805 5.08935L49.3528 7.78442C47.881 5.10025 45.6566 2.90483 42.9535 1.46822C42.3384 1.12871 41.6405 0.968309 40.9389 1.00518C34.4642 1.41022 31.3631 6.64278 30.0001 10.1818C28.6313 6.64665 25.5303 1.42762 19.0613 1.02355C18.3601 0.984053 17.6619 1.14285 17.0468 1.48175C14.3484 2.91585 12.1268 5.10584 10.6542 7.78345L7.41879 5.08838C7.13054 4.84829 6.72939 4.79665 6.38973 4.95592C6.05007 5.11519 5.83322 5.4566 5.83346 5.83175V9.69842H1.96679C1.63957 9.69838 1.33454 9.86388 1.1562 10.1382C0.977856 10.4126 0.950408 10.7585 1.08326 11.0576C1.20603 11.334 3.40326 16.1471 7.42459 18.7252V18.7252ZM23.2335 20.3318V28.0651H7.76679V21.2984C7.76679 20.7645 8.19958 20.3318 8.73346 20.3318H23.2335ZM25.0991 14.6439C22.8524 12.7087 21.2871 10.1027 20.6341 7.21022C23.6878 8.54808 25.2838 12.1915 25.8618 13.8135C25.5762 14.0597 25.3202 14.3384 25.0991 14.6439ZM26.1335 17.4318C26.1335 15.8301 27.4318 14.5318 29.0335 14.5318H30.9668C32.5684 14.5318 33.8668 15.8301 33.8668 17.4318V18.3984H26.1335V17.4318ZM34.8335 28.0651H25.1668V20.3318H34.8335V28.0651ZM34.1384 13.8135C34.7184 12.1915 36.3134 8.54808 39.3662 7.21022C38.7137 10.1029 37.1483 12.709 34.9011 14.6439C34.68 14.3384 34.424 14.0597 34.1384 13.8135ZM9.70013 56.0984V29.9984H25.1668V57.0651H10.6668C10.1329 57.0651 9.70013 56.6323 9.70013 56.0984ZM27.1001 57.0651V29.9984H32.9001V57.0651H27.1001ZM50.3001 56.0984C50.3001 56.6323 49.8673 57.0651 49.3335 57.0651H34.8335V29.9984H50.3001V56.0984ZM51.2668 20.3318C51.8007 20.3318 52.2335 20.7645 52.2335 21.2984V28.0651H36.7668V20.3318H51.2668ZM53.2001 11.6318H56.4327C55.089 13.945 51.9145 18.3984 47.4001 18.3984H45.2348C46.9031 17.036 48.3486 15.4216 49.5191 13.6134C50.2791 12.4468 50.4953 11.0078 50.1116 9.66942L52.2335 7.89848V10.6651C52.2335 11.199 52.6663 11.6318 53.2001 11.6318ZM41.0598 2.93175C41.4001 2.91682 41.7377 2.99788 42.0342 3.16568C43.459 3.93902 46.9139 6.14785 48.2131 10.0435C48.5007 10.8848 48.3856 11.8115 47.9009 12.5569C46.8201 14.2089 44.5697 17.1331 41.5325 18.3984H35.8001V17.4318C35.8 17.11 35.7676 16.7891 35.7035 16.4738C39.6668 13.6705 41.0414 8.79072 41.4551 6.74525C41.5562 6.25263 41.391 5.74313 41.0201 5.40352C40.646 5.05359 40.1155 4.92619 39.6233 5.06808C35.4193 6.25225 33.2926 10.5336 32.4284 12.8498C32.0306 12.7206 31.6175 12.6442 31.1998 12.6226C31.9141 9.94975 34.3443 3.35515 41.0598 2.93175V2.93175ZM11.7872 10.0571C13.0835 6.16622 16.5403 3.95642 17.9651 3.18695C18.2625 3.02065 18.6 2.9397 18.9405 2.95302C25.6501 3.37255 28.0813 9.94782 28.8005 12.6197C28.3834 12.6414 27.971 12.7178 27.5738 12.8469C26.7096 10.5269 24.5829 6.24935 20.3789 5.06518C19.8867 4.92488 19.3569 5.05209 18.9821 5.40062C18.6122 5.74084 18.4482 6.25025 18.55 6.74235C18.9589 8.79072 20.3335 13.6734 24.2968 16.4738C24.2326 16.7891 24.2002 17.11 24.2001 17.4318V18.3984H18.4678C15.4305 17.135 13.1782 14.2137 12.0994 12.5627C11.6156 11.8199 11.5005 10.8958 11.7872 10.0571ZM6.80013 11.6318C7.334 11.6318 7.76679 11.199 7.76679 10.6651V7.89462L9.89346 9.66555C9.50515 11.0066 9.72007 12.4503 10.4822 13.6202C11.6516 15.426 13.0958 17.0381 14.7626 18.3984H12.6001C8.09836 18.3984 4.91899 13.946 3.57049 11.6318H6.80013Z" fill="#7AC751"/>
    <path d="M7.42459 18.7252C6.4521 19.215 5.83715 20.2095 5.83346 21.2984V28.0651C5.83346 29.1328 6.69904 29.9984 7.76679 29.9984V56.0984C7.76679 57.7 9.06517 58.9984 10.6668 58.9984H49.3335C50.9351 58.9984 52.2335 57.7 52.2335 56.0984V29.9984C53.3012 29.9984 54.1668 29.1328 54.1668 28.0651V21.2984C54.1631 20.2095 53.5482 19.215 52.5757 18.7252C56.597 16.1471 58.7942 11.334 58.917 11.0576C59.0499 10.7585 59.0224 10.4126 58.8441 10.1382C58.6657 9.86388 58.3607 9.69838 58.0335 9.69842H54.1668V5.83175C54.167 5.4564 53.9498 5.11488 53.6099 4.95578C53.2699 4.79668 52.8686 4.84875 52.5805 5.08935L49.3528 7.78442C47.881 5.10025 45.6566 2.90483 42.9535 1.46822C42.3384 1.12871 41.6405 0.968309 40.9389 1.00518C34.4642 1.41022 31.3631 6.64278 30.0001 10.1818C28.6313 6.64665 25.5303 1.42762 19.0613 1.02355C18.3601 0.984053 17.6619 1.14285 17.0468 1.48175C14.3484 2.91585 12.1268 5.10584 10.6542 7.78345L7.41879 5.08838C7.13054 4.84829 6.72939 4.79665 6.38973 4.95592C6.05007 5.11519 5.83322 5.4566 5.83346 5.83175V9.69842H1.96679C1.63957 9.69838 1.33454 9.86388 1.1562 10.1382C0.977856 10.4126 0.950408 10.7585 1.08326 11.0576C1.20603 11.334 3.40326 16.1471 7.42459 18.7252V18.7252ZM23.2335 20.3318V28.0651H7.76679V21.2984C7.76679 20.7645 8.19958 20.3318 8.73346 20.3318H23.2335ZM25.0991 14.6439C22.8524 12.7087 21.2871 10.1027 20.6341 7.21022C23.6878 8.54808 25.2838 12.1915 25.8618 13.8135C25.5762 14.0597 25.3202 14.3384 25.0991 14.6439ZM26.1335 17.4318C26.1335 15.8301 27.4318 14.5318 29.0335 14.5318H30.9668C32.5684 14.5318 33.8668 15.8301 33.8668 17.4318V18.3984H26.1335V17.4318ZM34.8335 28.0651H25.1668V20.3318H34.8335V28.0651ZM34.1384 13.8135C34.7184 12.1915 36.3134 8.54808 39.3662 7.21022C38.7137 10.1029 37.1483 12.709 34.9011 14.6439C34.68 14.3384 34.424 14.0597 34.1384 13.8135ZM9.70013 56.0984V29.9984H25.1668V57.0651H10.6668C10.1329 57.0651 9.70013 56.6323 9.70013 56.0984ZM27.1001 57.0651V29.9984H32.9001V57.0651H27.1001ZM50.3001 56.0984C50.3001 56.6323 49.8673 57.0651 49.3335 57.0651H34.8335V29.9984H50.3001V56.0984ZM51.2668 20.3318C51.8007 20.3318 52.2335 20.7645 52.2335 21.2984V28.0651H36.7668V20.3318H51.2668ZM53.2001 11.6318H56.4327C55.089 13.945 51.9145 18.3984 47.4001 18.3984H45.2348C46.9031 17.036 48.3486 15.4216 49.5191 13.6134C50.2791 12.4468 50.4953 11.0078 50.1116 9.66942L52.2335 7.89848V10.6651C52.2335 11.199 52.6663 11.6318 53.2001 11.6318ZM41.0598 2.93175C41.4001 2.91682 41.7377 2.99788 42.0342 3.16568C43.459 3.93902 46.9139 6.14785 48.2131 10.0435C48.5007 10.8848 48.3856 11.8115 47.9009 12.5569C46.8201 14.2089 44.5697 17.1331 41.5325 18.3984H35.8001V17.4318C35.8 17.11 35.7676 16.7891 35.7035 16.4738C39.6668 13.6705 41.0414 8.79072 41.4551 6.74525C41.5562 6.25263 41.391 5.74313 41.0201 5.40352C40.646 5.05359 40.1155 4.92619 39.6233 5.06808C35.4193 6.25225 33.2926 10.5336 32.4284 12.8498C32.0306 12.7206 31.6175 12.6442 31.1998 12.6226C31.9141 9.94975 34.3443 3.35515 41.0598 2.93175V2.93175ZM11.7872 10.0571C13.0835 6.16622 16.5403 3.95642 17.9651 3.18695C18.2625 3.02065 18.6 2.9397 18.9405 2.95302C25.6501 3.37255 28.0813 9.94782 28.8005 12.6197C28.3834 12.6414 27.971 12.7178 27.5738 12.8469C26.7096 10.5269 24.5829 6.24935 20.3789 5.06518C19.8867 4.92488 19.3569 5.05209 18.9821 5.40062C18.6122 5.74084 18.4482 6.25025 18.55 6.74235C18.9589 8.79072 20.3335 13.6734 24.2968 16.4738C24.2326 16.7891 24.2002 17.11 24.2001 17.4318V18.3984H18.4678C15.4305 17.135 13.1782 14.2137 12.0994 12.5627C11.6156 11.8199 11.5005 10.8958 11.7872 10.0571ZM6.80013 11.6318C7.334 11.6318 7.76679 11.199 7.76679 10.6651V7.89462L9.89346 9.66555C9.50515 11.0066 9.72007 12.4503 10.4822 13.6202C11.6516 15.426 13.0958 17.0381 14.7626 18.3984H12.6001C8.09836 18.3984 4.91899 13.946 3.57049 11.6318H6.80013Z" stroke="#7AC751" stroke-width="0.5" mask="url(#path-1-outside-1_2_225)"/>
    <path d="M12.6001 31.8059C11.9971 31.8059 11.5084 32.2947 11.5084 32.8976V34.8309C11.5084 35.4338 11.9971 35.9226 12.6001 35.9226C13.203 35.9226 13.6917 35.4338 13.6917 34.8309V32.8976C13.6917 32.2947 13.203 31.8059 12.6001 31.8059Z" fill="#7AC751" stroke="#7AC751" stroke-width="0.25"/>
    <path d="M12.6001 37.606C11.9971 37.606 11.5084 38.0947 11.5084 38.6976V54.1643C11.5084 54.7672 11.9971 55.256 12.6001 55.256C13.203 55.256 13.6917 54.7672 13.6917 54.1643V38.6976C13.6917 38.0947 13.203 37.606 12.6001 37.606Z" fill="#7AC751" stroke="#7AC751" stroke-width="0.25"/>
    <path d="M47.4003 35.9226C48.0032 35.9226 48.492 35.4338 48.492 34.8309V32.8976C48.492 32.2947 48.0032 31.8059 47.4003 31.8059C46.7974 31.8059 46.3087 32.2947 46.3087 32.8976V34.8309C46.3087 35.4338 46.7974 35.9226 47.4003 35.9226Z" fill="#7AC751" stroke="#7AC751" stroke-width="0.25"/>
    <path d="M47.4003 55.256C48.0032 55.256 48.492 54.7672 48.492 54.1643V38.6976C48.492 38.0947 48.0032 37.606 47.4003 37.606C46.7974 37.606 46.3087 38.0947 46.3087 38.6976V54.1643C46.3087 54.7672 46.7974 55.256 47.4003 55.256Z" fill="#7AC751" stroke="#7AC751" stroke-width="0.25"/>
    </symbol>
    <symbol id="wallet" viewBox="0 0 58 58">
    <g clip-path="url(#clip0_2_212)">
    <path d="M55.3638 29.2433V21.0915C55.3638 18.3273 53.2197 16.0793 50.5107 15.8613L42.9404 2.6385C42.2388 1.41557 41.106 0.541509 39.7505 0.178561C38.4014 -0.181914 36.9906 0.00740666 35.7831 0.710192L9.83148 15.8188H5.27357C2.36567 15.8188 0.000888824 18.1834 0.000888824 21.0915V52.7273C0.000888824 55.6352 2.36555 58 5.27357 58H50.0911C52.999 58 55.3638 55.6353 55.3638 52.7273V44.5755C56.8948 44.0296 58 42.5801 58 40.8639V32.9549C58 31.2387 56.8948 29.7892 55.3638 29.2433ZM47.4474 15.8188H35.9582L44.5752 10.802L47.4474 15.8188ZM43.2654 8.51424L30.7187 15.8188H25.5145L41.9641 6.24152L43.2654 8.51424ZM37.1102 2.98859C37.7063 2.63973 38.4026 2.54705 39.0682 2.72475C39.7415 2.90493 40.3027 3.34005 40.6516 3.94891L40.6543 3.95373L20.2751 15.8188H15.0712L37.1102 2.98859ZM52.7273 52.7273C52.7273 54.1806 51.5443 55.3636 50.0911 55.3636H5.27357C3.8203 55.3636 2.63729 54.1806 2.63729 52.7273V21.0915C2.63729 19.6382 3.8203 18.4552 5.27357 18.4552H50.0911C51.5443 18.4552 52.7273 19.6382 52.7273 21.0915V29.0004H44.8184C40.4571 29.0004 36.9094 32.5481 36.9094 36.9094C36.9094 41.2707 40.4571 44.8183 44.8184 44.8183H52.7273V52.7273ZM55.3638 40.8639C55.3638 41.5911 54.7729 42.1821 54.0456 42.1821H44.8184C41.9105 42.1821 39.5457 39.8174 39.5457 36.9094C39.5457 34.0015 41.9104 31.6367 44.8184 31.6367H54.0456C54.7728 31.6367 55.3638 32.2275 55.3638 32.9549V40.8639Z" fill="#7AC751"/>
    <path d="M44.818 34.2732C43.3647 34.2732 42.1817 35.4562 42.1817 36.9095C42.1817 38.3627 43.3647 39.5457 44.818 39.5457C46.2712 39.5457 47.4542 38.3627 47.4542 36.9095C47.4544 35.4562 46.2713 34.2732 44.818 34.2732Z" fill="#7AC751"/>
    </g>
    <defs>
    <clipPath id="clip0_2_212">
    <rect width="58" height="58" fill="white"/>
    </clipPath>
    </defs>
    </symbol>
    <symbol id="support" viewBox="0 0 54 58">
    <path d="M47.9608 23.9752H47.8172V20.4579C47.8172 9.15933 38.658 0 27.3593 0C16.0606 0 6.90141 9.15933 6.90141 20.4579V23.9752H6.04008C2.88163 23.9752 0.441075 26.7747 0.441075 30.005V38.9777C0.361523 42.1086 2.83519 44.7111 5.96602 44.7907C5.99075 44.7913 6.01535 44.7918 6.04008 44.792H11.3519C12.1043 44.7567 12.6856 44.118 12.6502 43.3656C12.6489 43.3385 12.6469 43.3115 12.644 43.2845V25.6979C12.644 24.8366 12.1415 23.9751 11.3519 23.9751H9.7727V20.4578C9.7727 10.745 17.6466 2.87115 27.3593 2.87115C37.0721 2.87115 44.9459 10.745 44.9459 20.4578V23.9751H43.3667C42.5771 23.9751 42.0747 24.8364 42.0747 25.6979V43.2845C41.9946 44.0335 42.5367 44.7056 43.2857 44.7857C43.3126 44.7886 43.3397 44.7907 43.3667 44.7919H45.0177L44.8741 45.0072C42.7201 47.8698 39.3402 49.5465 35.7578 49.5294C34.9735 45.6839 31.2201 43.2021 27.3746 43.9865C24.086 44.6571 21.715 47.5372 21.6885 50.8934C21.7278 54.8297 24.9302 58 28.8667 57.9997C30.8154 57.9681 32.6728 57.1685 34.035 55.7745C34.954 54.8333 35.5562 53.6288 35.7578 52.3289C40.244 52.3459 44.4748 50.2437 47.1711 46.6581L48.535 44.6482C51.6216 44.4329 53.5597 42.4948 53.5597 39.6952V30.7225C53.5598 27.6361 51.2628 23.9752 47.9608 23.9752ZM9.7727 41.9207H6.04008C4.49438 41.8831 3.27183 40.5997 3.30948 39.054C3.31017 39.0286 3.31113 39.0031 3.31237 38.9776V30.0048C3.31237 28.3539 4.46086 26.8464 6.04008 26.8464H9.7727V41.9207ZM31.9534 53.7648C31.1579 54.6273 30.0402 55.1213 28.8668 55.1287C26.5314 55.0916 24.6361 53.228 24.5599 50.8935C24.5589 48.5545 26.4543 46.6576 28.7933 46.6566C31.1323 46.6557 33.0292 48.551 33.0302 50.8901C33.0302 50.8912 33.0302 50.8924 33.0302 50.8935C33.09 51.9593 32.6992 53.0011 31.9534 53.7648ZM50.6885 39.6955C50.6885 41.6336 48.8222 41.9207 47.9608 41.9207H44.9459V26.8465H47.9608C49.54 26.8465 50.6885 29.0718 50.6885 30.7227V39.6955Z" fill="#7AC751"/>
    </symbol>
    <symbol id="arrow" viewBox="0 0 12 9">
    <path d="M11.3879 2.98231L8.87805 0.209356C8.75672 0.0753053 8.59217 0 8.4206 0C8.24903 0 8.08448 0.0753053 7.96314 0.209356C7.84184 0.343447 7.7737 0.52529 7.7737 0.714895C7.7737 0.9045 7.84184 1.08634 7.96314 1.22043L10.2634 3.76386H1.60212C1.43051 3.76386 1.26593 3.83919 1.14459 3.97329C1.02325 4.10739 0.955078 4.28926 0.955078 4.47891C0.955078 4.66855 1.02325 4.85042 1.14459 4.98452C1.26593 5.11862 1.43051 5.19395 1.60212 5.19395H10.3028L7.96314 7.77885C7.90298 7.84526 7.85526 7.92412 7.8227 8.01093C7.79014 8.09773 7.77338 8.19078 7.77338 8.28475C7.77338 8.37872 7.79014 8.47176 7.8227 8.55857C7.85526 8.64537 7.90298 8.72424 7.96314 8.79064C8.08448 8.9247 8.24903 9 8.4206 9C8.59217 9 8.75672 8.9247 8.87805 8.79064L11.3886 6.01697C11.7515 5.61381 11.9552 5.0682 11.9551 4.49949C11.955 3.93079 11.751 3.38529 11.3879 2.98231Z" fill="#757575"/>
    </symbol>
    <symbol id="review" viewBox="0 0 68 11">
    <path d="M17.7302 3.85733L18.0376 3.81471L18.1805 3.53926L19.4653 1.06195C19.4654 1.06191 19.4654 1.06187 19.4654 1.06183C19.467 1.05886 19.4677 1.0583 19.4673 1.05872C19.467 1.05899 19.4672 1.05866 19.4686 1.05787C19.4722 1.0559 19.4818 1.0521 19.4965 1.05215C19.5112 1.05219 19.5217 1.0561 19.5264 1.05874L19.5284 1.06001L19.5288 1.06037L19.5289 1.06042L19.529 1.06064L19.5303 1.06282L19.5303 1.06284L20.8147 3.53926L20.9576 3.81471L21.265 3.85733L24.1399 4.2559L24.1404 4.25596C24.1431 4.25634 24.1456 4.25678 24.1477 4.25724L22.0828 6.17058L21.8418 6.39396L21.9002 6.71737L22.3895 9.42506C22.3821 9.42955 22.3733 9.43251 22.365 9.43324C22.3578 9.43387 22.3496 9.43316 22.3379 9.42733L22.3378 9.42728L19.7659 8.14173L19.4976 8.00764L19.2293 8.14173L16.6574 9.42728L16.6556 9.42821C16.6441 9.43398 16.6363 9.43456 16.6298 9.43399C16.6218 9.43329 16.613 9.43035 16.6056 9.42572L17.095 6.71737L17.1534 6.39396L16.9124 6.17058L14.8475 4.25724C14.8496 4.25678 14.8521 4.25634 14.8548 4.25596L14.8553 4.2559L17.7302 3.85733ZM22.3922 9.44004L22.9826 9.33336C23.0712 9.8255 22.5261 10.1923 22.0695 9.96397L22.3922 9.44004Z" fill="white" stroke="#7AC751" stroke-width="1.2"/>
    <path d="M3.62609 3.85757L3.93345 3.81496L4.07632 3.5395L5.36119 1.06219C5.36121 1.06215 5.36123 1.06211 5.36125 1.06207C5.3628 1.0591 5.36356 1.05854 5.36316 1.05896C5.36289 1.05924 5.36309 1.05891 5.36449 1.05812C5.368 1.05615 5.37763 1.05235 5.39231 1.05239C5.40705 1.05244 5.41757 1.05634 5.42225 1.05899L5.42422 1.06025L5.42465 1.06062L5.42469 1.06066L5.42486 1.06088L5.42616 1.06306L5.42618 1.06309L6.71058 3.5395L6.85344 3.81496L7.16081 3.85757L10.0358 4.25615L10.0362 4.2562C10.039 4.25659 10.0414 4.25703 10.0435 4.25748L7.97869 6.17083L7.73763 6.3942L7.79607 6.71761L8.28531 9.42531C8.27796 9.42979 8.26911 9.43276 8.2608 9.43348C8.25365 9.43411 8.24541 9.43341 8.23374 9.42757L8.23365 9.42752L5.66171 8.14197L5.39345 8.00789L5.12519 8.14197L2.55325 9.42752L2.5514 9.42845C2.53995 9.43422 2.53219 9.4348 2.52564 9.43423C2.51763 9.43354 2.50884 9.43059 2.50146 9.42597L2.99083 6.71761L3.04927 6.3942L2.8082 6.17083L0.74338 4.25748C0.745483 4.25703 0.747909 4.25659 0.750685 4.2562L0.751103 4.25615L3.62609 3.85757ZM8.28804 9.44028L8.87846 9.3336C8.96701 9.82574 8.42193 10.1925 7.96539 9.96421L8.28804 9.44028Z" fill="white" stroke="#7AC751" stroke-width="1.2"/>
    <path d="M31.8338 3.85733L32.1412 3.81471L32.2841 3.53926L33.5689 1.06195C33.5689 1.06191 33.569 1.06187 33.569 1.06183C33.5705 1.05886 33.5713 1.0583 33.5709 1.05872C33.5706 1.05899 33.5708 1.05866 33.5722 1.05787C33.5757 1.0559 33.5854 1.0521 33.6 1.05215C33.6148 1.05219 33.6253 1.0561 33.63 1.05874L33.632 1.06001L33.6324 1.06037L33.6324 1.06042L33.6326 1.06064L33.6339 1.06282L33.6339 1.06284L34.9183 3.53926L35.0612 3.81471L35.3685 3.85733L38.2435 4.2559L38.2439 4.25596C38.2467 4.25634 38.2491 4.25678 38.2512 4.25724L36.1864 6.17058L35.9454 6.39396L36.0038 6.71737L36.493 9.42506C36.4857 9.42955 36.4768 9.43251 36.4685 9.43324C36.4614 9.43387 36.4531 9.43316 36.4415 9.42733L36.4414 9.42728L33.8694 8.14173L33.6012 8.00764L33.3329 8.14173L30.761 9.42728L30.7591 9.42821C30.7477 9.43398 30.7399 9.43456 30.7334 9.43399C30.7254 9.43329 30.7166 9.43035 30.7092 9.42572L31.1986 6.71737L31.257 6.39396L31.0159 6.17058L28.9511 4.25724C28.9532 4.25678 28.9556 4.25634 28.9584 4.25596L28.9588 4.2559L31.8338 3.85733ZM36.4958 9.44004L37.0862 9.33336C37.1747 9.8255 36.6297 10.1923 36.1731 9.96397L36.4958 9.44004Z" fill="white" stroke="#7AC751" stroke-width="1.2"/>
    <path d="M45.9384 3.85733L46.2457 3.81471L46.3886 3.53926L47.6735 1.06195C47.6735 1.06191 47.6735 1.06187 47.6735 1.06183C47.6751 1.05886 47.6759 1.0583 47.6754 1.05872C47.6752 1.05899 47.6754 1.05866 47.6768 1.05787C47.6803 1.0559 47.6899 1.0521 47.7046 1.05215C47.7193 1.05219 47.7299 1.0561 47.7345 1.05874L47.7365 1.06001L47.7369 1.06037L47.737 1.06042L47.7371 1.06064L47.7384 1.06282L47.7385 1.06284L49.0229 3.53926L49.1657 3.81471L49.4731 3.85733L52.3481 4.2559L52.3485 4.25596C52.3513 4.25634 52.3537 4.25678 52.3558 4.25724L50.291 6.17058L50.0499 6.39396L50.1084 6.71737L50.5976 9.42506C50.5903 9.42955 50.5814 9.43251 50.5731 9.43324C50.5659 9.43387 50.5577 9.43316 50.546 9.42733L50.5459 9.42728L47.974 8.14173L47.7057 8.00764L47.4375 8.14173L44.8655 9.42728L44.8637 9.42821C44.8522 9.43398 44.8445 9.43456 44.8379 9.43399C44.8299 9.43329 44.8211 9.43035 44.8137 9.42572L45.3031 6.71737L45.3616 6.39396L45.1205 6.17058L43.0557 4.25724C43.0578 4.25678 43.0602 4.25634 43.063 4.25596L43.0634 4.2559L45.9384 3.85733ZM50.6003 9.44004L51.1907 9.33336C51.2793 9.8255 50.7342 10.1923 50.2777 9.96397L50.6003 9.44004Z" fill="white" stroke="#7AC751" stroke-width="1.2"/>
    <path d="M60.0429 3.85733L60.3503 3.81471L60.4932 3.53926L61.778 1.06195C61.778 1.06191 61.7781 1.06187 61.7781 1.06183C61.7796 1.05886 61.7804 1.0583 61.78 1.05872C61.7797 1.05899 61.7799 1.05866 61.7813 1.05787C61.7848 1.0559 61.7945 1.0521 61.8092 1.05215C61.8239 1.05219 61.8344 1.0561 61.8391 1.05874L61.8411 1.06001L61.8415 1.06037L61.8415 1.06042L61.8417 1.06064L61.843 1.06282L61.843 1.06284L63.1274 3.53926L63.2703 3.81471L63.5776 3.85733L66.4526 4.2559L66.453 4.25596C66.4558 4.25634 66.4583 4.25678 66.4604 4.25724L64.3955 6.17058L64.1545 6.39396L64.2129 6.71737L64.7022 9.42506C64.6948 9.42955 64.6859 9.43251 64.6776 9.43324C64.6705 9.43387 64.6623 9.43316 64.6506 9.42733L64.6505 9.42728L62.0785 8.14173L61.8103 8.00764L61.542 8.14173L58.9701 9.42728L58.9682 9.42821C58.9568 9.43398 58.949 9.43456 58.9425 9.43399C58.9345 9.43329 58.9257 9.43035 58.9183 9.42572L59.4077 6.71737L59.4661 6.39396L59.225 6.17058L57.1602 4.25724C57.1623 4.25678 57.1647 4.25634 57.1675 4.25596L57.1679 4.2559L60.0429 3.85733ZM64.7049 9.44004L65.2953 9.33336C65.3839 9.8255 64.8388 10.1923 64.3822 9.96397L64.7049 9.44004Z" fill="white" stroke="#7AC751" stroke-width="1.2"/>
    </symbol>
</svg>