<svg xmlns="http://www.w3.org/2000/svg">
    <symbol id="icon" viewBox="0 0 32 39">
    <path d="M5.96954 6.94641C6.61481 6.94641 7.14111 6.42011 7.14111 5.77484C7.14111 5.12958 6.61481 4.60327 5.96954 4.60327C5.32428 4.60327 4.79797 5.12958 4.79797 5.77484C4.79797 6.42371 5.32428 6.94641 5.96954 6.94641Z" fill="#85B839"/>
    <path d="M9.59605 24.7833V27.0327C11.4201 25.7098 13.5974 24.9852 15.8937 24.9852C18.1864 24.9852 20.3673 25.7098 22.1913 27.0327V24.7833C22.1913 22.8944 23.1394 21.2253 24.5777 20.2196C24.4552 17.8476 22.4941 15.9551 20.0933 15.9551H11.6941C9.29325 15.9551 7.33222 17.8476 7.20966 20.2196C8.64798 21.2253 9.59605 22.8944 9.59605 24.7833Z" fill="#85B839"/>
    <path d="M22.8222 12.5305H8.91473V14.4267H22.8222V12.5305Z" fill="#85B839"/>
    <path d="M22.1913 29.0262C20.4754 27.4185 18.2548 26.5281 15.8937 26.5281C13.5325 26.5281 11.3119 27.4185 9.59601 29.0262V31.081H22.1913V29.0262Z" fill="#85B839"/>
    <path d="M25.551 6.94641C26.1963 6.94641 26.7226 6.42011 26.7226 5.77484C26.7226 5.12958 26.1963 4.60327 25.551 4.60327C24.9058 4.60327 24.3795 5.12958 24.3795 5.77484C24.3795 6.42371 24.9058 6.94641 25.551 6.94641Z" fill="#85B839"/>
    <path d="M15.9117 3.77786C16.9535 3.77786 17.8006 2.93073 17.8006 1.88893C17.8006 0.847135 16.9535 0 15.9117 0C14.8699 0 14.0228 0.847135 14.0228 1.88893C14.0228 2.93073 14.8699 3.77786 15.9117 3.77786Z" fill="#85B839"/>
    <path d="M27.7608 20.7566C25.5402 20.7566 23.7342 22.5626 23.7342 24.7832V32.6201H8.05319V24.7832C8.05319 22.5626 6.24717 20.7566 4.0266 20.7566C1.80602 20.7566 0 22.5626 0 24.7832C0 27.0038 1.80602 28.8098 4.0266 28.8098H4.79803V35.8789H26.9894V28.8098H27.7608C29.9814 28.8098 31.7874 27.0038 31.7874 24.7832C31.7874 22.5626 29.9814 20.7566 27.7608 20.7566ZM4.0266 26.0341C3.33447 26.0341 2.77572 25.4753 2.77572 24.7832C2.77572 24.0911 3.33807 23.5323 4.0266 23.5323C4.71872 23.5323 5.27747 24.0911 5.27747 24.7832C5.27747 25.4753 4.71872 26.0341 4.0266 26.0341ZM27.7608 26.0341C27.0687 26.0341 26.5099 25.4753 26.5099 24.7832C26.5099 24.0911 27.0687 23.5323 27.7608 23.5323C28.4529 23.5323 29.0117 24.0911 29.0117 24.7832C29.0117 25.4753 28.4529 26.0341 27.7608 26.0341Z" fill="#85B839"/>
    <path d="M8.69839 10.9875H23.0348C23.8171 10.1404 24.383 9.14546 24.6966 8.0604C23.7702 8.54706 22.732 8.81742 21.665 8.81742C19.138 8.81742 16.9499 7.37549 15.8648 5.27026C14.7797 7.37188 12.588 8.81742 10.0646 8.81742C8.99398 8.81742 7.9594 8.55787 7.03656 8.07482C7.35739 9.15267 7.91974 10.144 8.69839 10.9875Z" fill="#85B839"/>
    <path d="M9.59609 37.4219H8.05322V38.9647H9.59609V37.4219Z" fill="#85B839"/>
    <path d="M23.7342 37.4219H22.1913V38.9647H23.7342V37.4219Z" fill="#85B839"/>
    </symbol>
    <symbol id="Search_icon" viewBox="0 0 16 16">
    <path d="M12.7 11.3C13.6 10.1 14.1 8.7 14.1 7.1C14.1 3.2 11 0 7.1 0C3.2 0 0 3.2 0 7.1C0 11 3.2 14.2 7.1 14.2C8.7 14.2 10.2 13.7 11.3 12.8L14.3 15.8C14.5 16 14.8 16.1 15 16.1C15.2 16.1 15.5 16 15.7 15.8C16.1 15.4 16.1 14.8 15.7 14.4L12.7 11.3ZM7.1 12.1C4.3 12.1 2 9.9 2 7.1C2 4.3 4.3 2 7.1 2C9.9 2 12.2 4.3 12.2 7.1C12.2 9.9 9.9 12.1 7.1 12.1Z" fill="white"/>
    </symbol>
    <symbol id="shop" viewBox="0 0 24 24">
    <path d="M21 6H18C18 4.4087 17.3679 2.88258 16.2426 1.75736C15.1174 0.632141 13.5913 0 12 0C10.4087 0 8.88258 0.632141 7.75736 1.75736C6.63214 2.88258 6 4.4087 6 6H3C2.20435 6 1.44129 6.31607 0.87868 6.87868C0.31607 7.44129 0 8.20435 0 9L0 19C0.00158786 20.3256 0.528882 21.5964 1.46622 22.5338C2.40356 23.4711 3.67441 23.9984 5 24H19C20.3256 23.9984 21.5964 23.4711 22.5338 22.5338C23.4711 21.5964 23.9984 20.3256 24 19V9C24 8.20435 23.6839 7.44129 23.1213 6.87868C22.5587 6.31607 21.7956 6 21 6ZM12 2C13.0609 2 14.0783 2.42143 14.8284 3.17157C15.5786 3.92172 16 4.93913 16 6H8C8 4.93913 8.42143 3.92172 9.17157 3.17157C9.92172 2.42143 10.9391 2 12 2ZM22 19C22 19.7956 21.6839 20.5587 21.1213 21.1213C20.5587 21.6839 19.7956 22 19 22H5C4.20435 22 3.44129 21.6839 2.87868 21.1213C2.31607 20.5587 2 19.7956 2 19V9C2 8.73478 2.10536 8.48043 2.29289 8.29289C2.48043 8.10536 2.73478 8 3 8H6V10C6 10.2652 6.10536 10.5196 6.29289 10.7071C6.48043 10.8946 6.73478 11 7 11C7.26522 11 7.51957 10.8946 7.70711 10.7071C7.89464 10.5196 8 10.2652 8 10V8H16V10C16 10.2652 16.1054 10.5196 16.2929 10.7071C16.4804 10.8946 16.7348 11 17 11C17.2652 11 17.5196 10.8946 17.7071 10.7071C17.8946 10.5196 18 10.2652 18 10V8H21C21.2652 8 21.5196 8.10536 21.7071 8.29289C21.8946 8.48043 22 8.73478 22 9V19Z" fill="#555555"/>
    </symbol>
    <symbol id="Notification" viewBox="0 0 22 24">
     <path d="M9 12H7v2h2v-2zm5-2h1c.552 0 1 .444 1 1 0 .552-.445 1-1 1h-4v2a2 2 0 0 1-1.998 2H6.998A1.994 1.994 0 0 1 5 14v-2H1c-.552 0-1-.444-1-1 0-.552.445-1 1-1h1V2.009A2.01 2.01 0 0 1 4.009 0h7.982A2.01 2.01 0 0 1 14 2.009V10zM4 2.997V10h8V2.997c0-.544-.446-.997-.997-.997H4.997C4.453 2 4 2.446 4 2.997z" fill-rule="evenodd"/>
    </symbol>
    <symbol id ="Acc" viewBox="0 0 22 24">
    <path d="M14.6182 11.1284C16.1539 10.0084 17.1539 8.19581 17.1539 6.15384C17.1539 2.76061 14.3933 0 11.0001 0C7.60685 0 4.84624 2.76061 4.84624 6.15384C4.84624 8.19581 5.84622 10.0084 7.38194 11.1284C3.56444 12.5892 0.846252 16.2905 0.846252 20.6154C0.846252 22.4817 2.36458 24 4.23086 24H17.7693C19.6356 24 21.1539 22.4817 21.1539 20.6154C21.1539 16.2905 18.4357 12.5892 14.6182 11.1284ZM6.69241 6.15384C6.69241 3.77859 8.62483 1.84617 11.0001 1.84617C13.3753 1.84617 15.3078 3.77859 15.3078 6.15384C15.3078 8.52909 13.3753 10.4616 11.0001 10.4616C8.62483 10.4616 6.69241 8.52909 6.69241 6.15384ZM17.7693 22.1538H4.23086C3.38257 22.1538 2.69242 21.4637 2.69242 20.6153C2.69242 16.0344 6.41918 12.3076 11.0001 12.3076C15.5811 12.3076 19.3078 16.0344 19.3078 20.6153C19.3078 21.4637 18.6176 22.1538 17.7693 22.1538Z" fill="#555555"/>
    </symbol>
    <symbol id="bottom" viewBox="0 0 24 24">
    <path d="M3 13H15" stroke="white" stroke-width="2.5" stroke-linecap="round" stroke-linejoin="round"/>
    <path d="M3 6H21" stroke="white" stroke-width="2.5" stroke-linecap="round" stroke-linejoin="round"/>
    <path d="M3 20H9" stroke="white" stroke-width="2.5" stroke-linecap="round" stroke-linejoin="round"/>
    </symbol>
    <symbol id="free" viewBox="0 0 58 58">
    <path d="M53.9398 32.5048L52.4378 26.4969C52.8484 26.4097 53.1565 26.0454 53.1565 25.6089V24.6402C53.1565 22.537 51.4454 20.826 49.3424 20.826H42.5011V18.8281C42.5011 17.7932 41.6592 16.9513 40.6242 16.9513H27.9034L35.6337 13.8591C36.0994 13.6729 36.3259 13.1443 36.1397 12.6786C35.9534 12.213 35.4252 11.9864 34.9592 12.1727L28.6297 14.7044C30.5584 13.4669 32.4666 12.105 33.1931 11.1525C34.6074 9.2982 34.2492 6.63903 32.3949 5.22472C30.5406 3.81029 27.8815 4.1686 26.4671 6.0229C25.4338 7.37797 24.0703 11.1855 23.1879 13.8685C22.3054 11.1857 20.942 7.37797 19.9086 6.0229C18.4944 4.1686 15.8351 3.81051 13.9808 5.22472C12.1265 6.63892 11.7684 9.29808 13.1827 11.1525C13.9091 12.1051 15.8172 13.4669 17.7461 14.7044L11.4166 12.1727C10.9507 11.9861 10.4223 12.2129 10.2361 12.6786C10.0497 13.1443 10.2763 13.6729 10.742 13.8591L18.4723 16.9513H5.75152C4.71658 16.9513 3.87467 17.7932 3.87467 18.8281V35.2958C3.87467 35.7973 4.28124 36.204 4.78285 36.204C5.28434 36.204 5.69102 35.7974 5.69102 35.2958V18.8281C5.69102 18.7947 5.7181 18.7676 5.75152 18.7676H40.6241C40.6575 18.7676 40.6846 18.7947 40.6846 18.8281V35.296C40.6846 35.7975 41.0912 36.2042 41.5928 36.2042C42.0943 36.2042 42.501 35.7976 42.501 35.296V34.2665H53.2135C53.2145 34.2665 53.2153 34.2667 53.2164 34.2667C53.2174 34.2667 53.2183 34.2666 53.2193 34.2666C54.5374 34.2676 55.6567 35.1329 56.0409 36.3251H53.217C52.7155 36.3251 52.3089 36.7316 52.3089 37.2332V39.1706C52.3089 40.7396 53.5853 42.0161 55.1544 42.0161H56.1836V46.0119H53.809C53.029 43.7596 50.8879 42.1371 48.3736 42.1371C45.8593 42.1371 43.7181 43.7595 42.9381 46.0119H42.5009V39.1705C42.5009 38.669 42.0943 38.2623 41.5927 38.2623C41.0912 38.2623 40.6845 38.6689 40.6845 39.1705V46.0117H21.8426C21.0625 43.7595 18.9214 42.137 16.4071 42.137C13.8928 42.137 11.7516 43.7594 10.9716 46.0117H5.75152C5.7181 46.0117 5.69102 45.9847 5.69102 45.9513V43.9533H9.6263C10.1278 43.9533 10.5345 43.5467 10.5345 43.0451C10.5345 42.5435 10.1279 42.137 9.6263 42.137H0.908176C0.40668 42.137 0 42.5435 0 43.0451C0 43.5467 0.406566 43.9533 0.908176 43.9533H3.87479V45.9513C3.87479 46.9862 4.71669 47.8281 5.75163 47.8281H10.6572C10.6569 47.8483 10.6556 47.8683 10.6556 47.8886C10.6556 51.0599 13.2358 53.6401 16.4071 53.6401C19.5784 53.6401 22.1586 51.0599 22.1586 47.8886C22.1586 47.8682 22.1572 47.8483 22.157 47.8281H42.6235C42.6233 47.8483 42.622 47.8683 42.622 47.8886C42.622 51.0599 45.2022 53.6401 48.3735 53.6401C51.5448 53.6401 54.125 51.0599 54.125 47.8886C54.125 47.8682 54.1236 47.8483 54.1234 47.8281H57.0917C57.5932 47.8281 57.9999 47.4215 57.9999 46.9199V37.2331C58 34.8413 56.2354 32.8541 53.9398 32.5048ZM19.5863 13.7138C16.004 11.4877 14.9415 10.4635 14.6269 10.051C13.82 8.99302 14.0243 7.47584 15.0824 6.66894C15.5185 6.33635 16.0326 6.1756 16.5429 6.1756C17.2704 6.1756 17.9902 6.50253 18.4645 7.12444C19.343 8.27629 20.7188 12.1531 21.6271 14.9467C21.0141 14.5858 20.3095 14.1634 19.5863 13.7138ZM24.7489 14.9466C25.6572 12.1531 27.033 8.2764 27.9114 7.12433C28.7183 6.0664 30.2354 5.86215 31.2934 6.66894C32.3514 7.47584 32.5557 8.99302 31.7489 10.051C31.4343 10.4634 30.3717 11.4877 26.7897 13.7137C26.0666 14.1632 25.362 14.5857 24.7489 14.9466ZM42.5011 22.6422H49.3424C50.444 22.6422 51.3403 23.5384 51.3403 24.6401V24.7006H42.5011V22.6422ZM42.5011 32.4502V26.5169H50.5707L52.054 32.4502H42.5011ZM16.4071 51.8239C14.2372 51.8239 12.4718 50.0585 12.4718 47.8886C12.4718 45.7187 14.2372 43.9533 16.4071 43.9533C18.577 43.9533 20.3424 45.7187 20.3424 47.8886C20.3424 50.0585 18.577 51.8239 16.4071 51.8239ZM48.3737 51.8239C46.2038 51.8239 44.4384 50.0585 44.4384 47.8886C44.4384 45.7187 46.2038 43.9533 48.3737 43.9533C50.5436 43.9533 52.309 45.7187 52.309 47.8886C52.309 50.0585 50.5436 51.8239 48.3737 51.8239ZM56.1838 40.1996H55.1545C54.5869 40.1996 54.1252 39.7379 54.1252 39.1703V38.1411H56.1836V40.1996H56.1838Z" fill="#7AC751"/>
    <path d="M16.4075 46.0117C15.3725 46.0117 14.5306 46.8536 14.5306 47.8886C14.5306 48.9235 15.3725 49.7654 16.4075 49.7654C17.4424 49.7654 18.2843 48.9235 18.2843 47.8886C18.2843 46.8536 17.4424 46.0117 16.4075 46.0117Z" fill="#7AC751"/>
    <path d="M48.3734 46.0117C47.3385 46.0117 46.4966 46.8536 46.4966 47.8886C46.4966 48.9235 47.3385 49.7654 48.3734 49.7654C49.4084 49.7654 50.2503 48.9235 50.2503 47.8886C50.2503 46.8536 49.4084 46.0117 48.3734 46.0117Z" fill="#7AC751"/>
    <path d="M37.7185 42.137H24.1569C23.6554 42.137 23.2487 42.5435 23.2487 43.0451C23.2487 43.5467 23.6553 43.9533 24.1569 43.9533H37.7185C38.22 43.9533 38.6266 43.5467 38.6266 43.0451C38.6266 42.5435 38.2201 42.137 37.7185 42.137Z" fill="#7AC751"/>
    <path d="M14.4702 38.2622H2.84598C2.34448 38.2622 1.93781 38.6688 1.93781 39.1704C1.93781 39.672 2.34437 40.0786 2.84598 40.0786H14.4702C14.9717 40.0786 15.3784 39.672 15.3784 39.1704C15.3784 38.6688 14.9717 38.2622 14.4702 38.2622Z" fill="#7AC751"/>
    <path d="M14.4697 24.7004H10.5949C10.0934 24.7004 9.68677 25.107 9.68677 25.6086V33.3581C9.68677 33.8596 10.0933 34.2663 10.5949 34.2663C11.0966 34.2663 11.5031 33.8597 11.5031 33.3581V30.3915H13.5011C14.0026 30.3915 14.4092 29.9849 14.4092 29.4833C14.4092 28.9817 14.0027 28.5751 13.5011 28.5751H11.5031V26.5168H14.4697C14.9712 26.5168 15.3779 26.1102 15.3779 25.6086C15.3778 25.1071 14.9712 24.7004 14.4697 24.7004Z" fill="#7AC751"/>
    <path d="M21.6164 30.8173C22.5253 30.222 23.1273 29.1954 23.1273 28.0303C23.1273 26.1942 21.6335 24.7004 19.7974 24.7004H17.3756C16.8741 24.7004 16.4675 25.107 16.4675 25.6086V33.3581C16.4675 33.8596 16.874 34.2663 17.3756 34.2663C17.8773 34.2663 18.2838 33.8597 18.2838 33.3581V31.3601H19.7957L21.4634 33.8617C21.6384 34.1242 21.9263 34.2663 22.2198 34.2663C22.393 34.2663 22.5679 34.2169 22.7226 34.1136C23.1401 33.8354 23.2528 33.2715 22.9745 32.8543L21.6164 30.8173ZM19.7974 29.5439H18.2838V26.5168H19.7974C20.632 26.5168 21.3109 27.1957 21.3109 28.0303C21.3109 28.865 20.632 29.5439 19.7974 29.5439Z" fill="#7AC751"/>
    <path d="M28.9997 32.45H26.0331V30.3885C26.0532 30.3899 26.0732 30.3916 26.0936 30.3916H28.031C28.5325 30.3916 28.9391 29.985 28.9391 29.4834C28.9391 28.9818 28.5326 28.5752 28.031 28.5752H26.0936C26.0731 28.5752 26.0532 28.5769 26.0331 28.5783V26.5168H28.9997C29.5012 26.5168 29.9079 26.1102 29.9079 25.6086C29.9079 25.1071 29.5014 24.7004 28.9997 24.7004H25.125C24.6235 24.7004 24.2168 25.107 24.2168 25.6086V33.3581C24.2168 33.8596 24.6234 34.2663 25.125 34.2663H28.9997C29.5012 34.2663 29.9079 33.8597 29.9079 33.3581C29.9079 32.8565 29.5012 32.45 28.9997 32.45Z" fill="#7AC751"/>
    <path d="M35.781 32.45H32.8144V30.3916H33.8437C34.3452 30.3916 34.7518 29.985 34.7518 29.4834C34.7518 28.9818 34.3453 28.5752 33.8437 28.5752H32.8144V26.5168H35.781C36.2825 26.5168 36.6892 26.1102 36.6892 25.6086C36.6892 25.1071 36.2826 24.7004 35.781 24.7004H31.9062C31.4047 24.7004 30.998 25.107 30.998 25.6086V33.3581C30.998 33.8596 31.4046 34.2663 31.9062 34.2663H35.781C36.2825 34.2663 36.6892 33.8597 36.6892 33.3581C36.6892 32.8565 36.2825 32.45 35.781 32.45Z" fill="#7AC751"/>
    </symbol>
</svg>