<svg xmlns="http://www.w3.org/2000/svg">
    <symbol id="icon" viewBox="0 0 32 39">
    <path d="M5.96954 6.94641C6.61481 6.94641 7.14111 6.42011 7.14111 5.77484C7.14111 5.12958 6.61481 4.60327 5.96954 4.60327C5.32428 4.60327 4.79797 5.12958 4.79797 5.77484C4.79797 6.42371 5.32428 6.94641 5.96954 6.94641Z" fill="#85B839"/>
    <path d="M9.59605 24.7833V27.0327C11.4201 25.7098 13.5974 24.9852 15.8937 24.9852C18.1864 24.9852 20.3673 25.7098 22.1913 27.0327V24.7833C22.1913 22.8944 23.1394 21.2253 24.5777 20.2196C24.4552 17.8476 22.4941 15.9551 20.0933 15.9551H11.6941C9.29325 15.9551 7.33222 17.8476 7.20966 20.2196C8.64798 21.2253 9.59605 22.8944 9.59605 24.7833Z" fill="#85B839"/>
    <path d="M22.8222 12.5305H8.91473V14.4267H22.8222V12.5305Z" fill="#85B839"/>
    <path d="M22.1913 29.0262C20.4754 27.4185 18.2548 26.5281 15.8937 26.5281C13.5325 26.5281 11.3119 27.4185 9.59601 29.0262V31.081H22.1913V29.0262Z" fill="#85B839"/>
    <path d="M25.551 6.94641C26.1963 6.94641 26.7226 6.42011 26.7226 5.77484C26.7226 5.12958 26.1963 4.60327 25.551 4.60327C24.9058 4.60327 24.3795 5.12958 24.3795 5.77484C24.3795 6.42371 24.9058 6.94641 25.551 6.94641Z" fill="#85B839"/>
    <path d="M15.9117 3.77786C16.9535 3.77786 17.8006 2.93073 17.8006 1.88893C17.8006 0.847135 16.9535 0 15.9117 0C14.8699 0 14.0228 0.847135 14.0228 1.88893C14.0228 2.93073 14.8699 3.77786 15.9117 3.77786Z" fill="#85B839"/>
    <path d="M27.7608 20.7566C25.5402 20.7566 23.7342 22.5626 23.7342 24.7832V32.6201H8.05319V24.7832C8.05319 22.5626 6.24717 20.7566 4.0266 20.7566C1.80602 20.7566 0 22.5626 0 24.7832C0 27.0038 1.80602 28.8098 4.0266 28.8098H4.79803V35.8789H26.9894V28.8098H27.7608C29.9814 28.8098 31.7874 27.0038 31.7874 24.7832C31.7874 22.5626 29.9814 20.7566 27.7608 20.7566ZM4.0266 26.0341C3.33447 26.0341 2.77572 25.4753 2.77572 24.7832C2.77572 24.0911 3.33807 23.5323 4.0266 23.5323C4.71872 23.5323 5.27747 24.0911 5.27747 24.7832C5.27747 25.4753 4.71872 26.0341 4.0266 26.0341ZM27.7608 26.0341C27.0687 26.0341 26.5099 25.4753 26.5099 24.7832C26.5099 24.0911 27.0687 23.5323 27.7608 23.5323C28.4529 23.5323 29.0117 24.0911 29.0117 24.7832C29.0117 25.4753 28.4529 26.0341 27.7608 26.0341Z" fill="#85B839"/>
    <path d="M8.69839 10.9875H23.0348C23.8171 10.1404 24.383 9.14546 24.6966 8.0604C23.7702 8.54706 22.732 8.81742 21.665 8.81742C19.138 8.81742 16.9499 7.37549 15.8648 5.27026C14.7797 7.37188 12.588 8.81742 10.0646 8.81742C8.99398 8.81742 7.9594 8.55787 7.03656 8.07482C7.35739 9.15267 7.91974 10.144 8.69839 10.9875Z" fill="#85B839"/>
    <path d="M9.59609 37.4219H8.05322V38.9647H9.59609V37.4219Z" fill="#85B839"/>
    <path d="M23.7342 37.4219H22.1913V38.9647H23.7342V37.4219Z" fill="#85B839"/>
    </symbol>
    <symbol id="Search_icon" viewBox="0 0 16 16">
    <path d="M12.7 11.3C13.6 10.1 14.1 8.7 14.1 7.1C14.1 3.2 11 0 7.1 0C3.2 0 0 3.2 0 7.1C0 11 3.2 14.2 7.1 14.2C8.7 14.2 10.2 13.7 11.3 12.8L14.3 15.8C14.5 16 14.8 16.1 15 16.1C15.2 16.1 15.5 16 15.7 15.8C16.1 15.4 16.1 14.8 15.7 14.4L12.7 11.3ZM7.1 12.1C4.3 12.1 2 9.9 2 7.1C2 4.3 4.3 2 7.1 2C9.9 2 12.2 4.3 12.2 7.1C12.2 9.9 9.9 12.1 7.1 12.1Z" fill="white"/>
    </symbol>
    <symbol id="shop" viewBox="0 0 24 24">
    <path d="M21 6H18C18 4.4087 17.3679 2.88258 16.2426 1.75736C15.1174 0.632141 13.5913 0 12 0C10.4087 0 8.88258 0.632141 7.75736 1.75736C6.63214 2.88258 6 4.4087 6 6H3C2.20435 6 1.44129 6.31607 0.87868 6.87868C0.31607 7.44129 0 8.20435 0 9L0 19C0.00158786 20.3256 0.528882 21.5964 1.46622 22.5338C2.40356 23.4711 3.67441 23.9984 5 24H19C20.3256 23.9984 21.5964 23.4711 22.5338 22.5338C23.4711 21.5964 23.9984 20.3256 24 19V9C24 8.20435 23.6839 7.44129 23.1213 6.87868C22.5587 6.31607 21.7956 6 21 6ZM12 2C13.0609 2 14.0783 2.42143 14.8284 3.17157C15.5786 3.92172 16 4.93913 16 6H8C8 4.93913 8.42143 3.92172 9.17157 3.17157C9.92172 2.42143 10.9391 2 12 2ZM22 19C22 19.7956 21.6839 20.5587 21.1213 21.1213C20.5587 21.6839 19.7956 22 19 22H5C4.20435 22 3.44129 21.6839 2.87868 21.1213C2.31607 20.5587 2 19.7956 2 19V9C2 8.73478 2.10536 8.48043 2.29289 8.29289C2.48043 8.10536 2.73478 8 3 8H6V10C6 10.2652 6.10536 10.5196 6.29289 10.7071C6.48043 10.8946 6.73478 11 7 11C7.26522 11 7.51957 10.8946 7.70711 10.7071C7.89464 10.5196 8 10.2652 8 10V8H16V10C16 10.2652 16.1054 10.5196 16.2929 10.7071C16.4804 10.8946 16.7348 11 17 11C17.2652 11 17.5196 10.8946 17.7071 10.7071C17.8946 10.5196 18 10.2652 18 10V8H21C21.2652 8 21.5196 8.10536 21.7071 8.29289C21.8946 8.48043 22 8.73478 22 9V19Z" fill="#555555"/>
    </symbol>
    <symbol id="Notification" viewBox="0 0 22 24">
     <path d="M9 12H7v2h2v-2zm5-2h1c.552 0 1 .444 1 1 0 .552-.445 1-1 1h-4v2a2 2 0 0 1-1.998 2H6.998A1.994 1.994 0 0 1 5 14v-2H1c-.552 0-1-.444-1-1 0-.552.445-1 1-1h1V2.009A2.01 2.01 0 0 1 4.009 0h7.982A2.01 2.01 0 0 1 14 2.009V10zM4 2.997V10h8V2.997c0-.544-.446-.997-.997-.997H4.997C4.453 2 4 2.446 4 2.997z" fill-rule="evenodd"/>
    </symbol>
    <symbol id ="Acc" viewBox="0 0 22 24">
    <path d="M14.6182 11.1284C16.1539 10.0084 17.1539 8.19581 17.1539 6.15384C17.1539 2.76061 14.3933 0 11.0001 0C7.60685 0 4.84624 2.76061 4.84624 6.15384C4.84624 8.19581 5.84622 10.0084 7.38194 11.1284C3.56444 12.5892 0.846252 16.2905 0.846252 20.6154C0.846252 22.4817 2.36458 24 4.23086 24H17.7693C19.6356 24 21.1539 22.4817 21.1539 20.6154C21.1539 16.2905 18.4357 12.5892 14.6182 11.1284ZM6.69241 6.15384C6.69241 3.77859 8.62483 1.84617 11.0001 1.84617C13.3753 1.84617 15.3078 3.77859 15.3078 6.15384C15.3078 8.52909 13.3753 10.4616 11.0001 10.4616C8.62483 10.4616 6.69241 8.52909 6.69241 6.15384ZM17.7693 22.1538H4.23086C3.38257 22.1538 2.69242 21.4637 2.69242 20.6153C2.69242 16.0344 6.41918 12.3076 11.0001 12.3076C15.5811 12.3076 19.3078 16.0344 19.3078 20.6153C19.3078 21.4637 18.6176 22.1538 17.7693 22.1538Z" fill="#555555"/>
    </symbol>
</svg>