<svg xmlns="http://www.w3.org/2000/svg">
    <symbol id="icon" viewBox="0 0 32 39">
    <path d="M5.96954 6.94641C6.61481 6.94641 7.14111 6.42011 7.14111 5.77484C7.14111 5.12958 6.61481 4.60327 5.96954 4.60327C5.32428 4.60327 4.79797 5.12958 4.79797 5.77484C4.79797 6.42371 5.32428 6.94641 5.96954 6.94641Z" fill="#85B839"/>
    <path d="M9.59605 24.7833V27.0327C11.4201 25.7098 13.5974 24.9852 15.8937 24.9852C18.1864 24.9852 20.3673 25.7098 22.1913 27.0327V24.7833C22.1913 22.8944 23.1394 21.2253 24.5777 20.2196C24.4552 17.8476 22.4941 15.9551 20.0933 15.9551H11.6941C9.29325 15.9551 7.33222 17.8476 7.20966 20.2196C8.64798 21.2253 9.59605 22.8944 9.59605 24.7833Z" fill="#85B839"/>
    <path d="M22.8222 12.5305H8.91473V14.4267H22.8222V12.5305Z" fill="#85B839"/>
    <path d="M22.1913 29.0262C20.4754 27.4185 18.2548 26.5281 15.8937 26.5281C13.5325 26.5281 11.3119 27.4185 9.59601 29.0262V31.081H22.1913V29.0262Z" fill="#85B839"/>
    <path d="M25.551 6.94641C26.1963 6.94641 26.7226 6.42011 26.7226 5.77484C26.7226 5.12958 26.1963 4.60327 25.551 4.60327C24.9058 4.60327 24.3795 5.12958 24.3795 5.77484C24.3795 6.42371 24.9058 6.94641 25.551 6.94641Z" fill="#85B839"/>
    <path d="M15.9117 3.77786C16.9535 3.77786 17.8006 2.93073 17.8006 1.88893C17.8006 0.847135 16.9535 0 15.9117 0C14.8699 0 14.0228 0.847135 14.0228 1.88893C14.0228 2.93073 14.8699 3.77786 15.9117 3.77786Z" fill="#85B839"/>
    <path d="M27.7608 20.7566C25.5402 20.7566 23.7342 22.5626 23.7342 24.7832V32.6201H8.05319V24.7832C8.05319 22.5626 6.24717 20.7566 4.0266 20.7566C1.80602 20.7566 0 22.5626 0 24.7832C0 27.0038 1.80602 28.8098 4.0266 28.8098H4.79803V35.8789H26.9894V28.8098H27.7608C29.9814 28.8098 31.7874 27.0038 31.7874 24.7832C31.7874 22.5626 29.9814 20.7566 27.7608 20.7566ZM4.0266 26.0341C3.33447 26.0341 2.77572 25.4753 2.77572 24.7832C2.77572 24.0911 3.33807 23.5323 4.0266 23.5323C4.71872 23.5323 5.27747 24.0911 5.27747 24.7832C5.27747 25.4753 4.71872 26.0341 4.0266 26.0341ZM27.7608 26.0341C27.0687 26.0341 26.5099 25.4753 26.5099 24.7832C26.5099 24.0911 27.0687 23.5323 27.7608 23.5323C28.4529 23.5323 29.0117 24.0911 29.0117 24.7832C29.0117 25.4753 28.4529 26.0341 27.7608 26.0341Z" fill="#85B839"/>
    <path d="M8.69839 10.9875H23.0348C23.8171 10.1404 24.383 9.14546 24.6966 8.0604C23.7702 8.54706 22.732 8.81742 21.665 8.81742C19.138 8.81742 16.9499 7.37549 15.8648 5.27026C14.7797 7.37188 12.588 8.81742 10.0646 8.81742C8.99398 8.81742 7.9594 8.55787 7.03656 8.07482C7.35739 9.15267 7.91974 10.144 8.69839 10.9875Z" fill="#85B839"/>
    <path d="M9.59609 37.4219H8.05322V38.9647H9.59609V37.4219Z" fill="#85B839"/>
    <path d="M23.7342 37.4219H22.1913V38.9647H23.7342V37.4219Z" fill="#85B839"/>
    </symbol>
    <symbol id="Search_icon" viewBox="0 0 16 16">
    <path d="M12.7 11.3C13.6 10.1 14.1 8.7 14.1 7.1C14.1 3.2 11 0 7.1 0C3.2 0 0 3.2 0 7.1C0 11 3.2 14.2 7.1 14.2C8.7 14.2 10.2 13.7 11.3 12.8L14.3 15.8C14.5 16 14.8 16.1 15 16.1C15.2 16.1 15.5 16 15.7 15.8C16.1 15.4 16.1 14.8 15.7 14.4L12.7 11.3ZM7.1 12.1C4.3 12.1 2 9.9 2 7.1C2 4.3 4.3 2 7.1 2C9.9 2 12.2 4.3 12.2 7.1C12.2 9.9 9.9 12.1 7.1 12.1Z" fill="white"/>
    </symbol>
    <symbol id="shop" viewBox="0 0 24 24">
    <path d="M21 6H18C18 4.4087 17.3679 2.88258 16.2426 1.75736C15.1174 0.632141 13.5913 0 12 0C10.4087 0 8.88258 0.632141 7.75736 1.75736C6.63214 2.88258 6 4.4087 6 6H3C2.20435 6 1.44129 6.31607 0.87868 6.87868C0.31607 7.44129 0 8.20435 0 9L0 19C0.00158786 20.3256 0.528882 21.5964 1.46622 22.5338C2.40356 23.4711 3.67441 23.9984 5 24H19C20.3256 23.9984 21.5964 23.4711 22.5338 22.5338C23.4711 21.5964 23.9984 20.3256 24 19V9C24 8.20435 23.6839 7.44129 23.1213 6.87868C22.5587 6.31607 21.7956 6 21 6ZM12 2C13.0609 2 14.0783 2.42143 14.8284 3.17157C15.5786 3.92172 16 4.93913 16 6H8C8 4.93913 8.42143 3.92172 9.17157 3.17157C9.92172 2.42143 10.9391 2 12 2ZM22 19C22 19.7956 21.6839 20.5587 21.1213 21.1213C20.5587 21.6839 19.7956 22 19 22H5C4.20435 22 3.44129 21.6839 2.87868 21.1213C2.31607 20.5587 2 19.7956 2 19V9C2 8.73478 2.10536 8.48043 2.29289 8.29289C2.48043 8.10536 2.73478 8 3 8H6V10C6 10.2652 6.10536 10.5196 6.29289 10.7071C6.48043 10.8946 6.73478 11 7 11C7.26522 11 7.51957 10.8946 7.70711 10.7071C7.89464 10.5196 8 10.2652 8 10V8H16V10C16 10.2652 16.1054 10.5196 16.2929 10.7071C16.4804 10.8946 16.7348 11 17 11C17.2652 11 17.5196 10.8946 17.7071 10.7071C17.8946 10.5196 18 10.2652 18 10V8H21C21.2652 8 21.5196 8.10536 21.7071 8.29289C21.8946 8.48043 22 8.73478 22 9V19Z" fill="#555555"/>
    </symbol>
    <symbol id="Notification" viewBox="0 0 26 26">
     <g id="Iconly/Light/Notification">
    <g id="Notification">
    <path id="Stroke 1" fill-rule="evenodd" clip-rule="evenodd" d="M13 19.335C19.1092 19.335 21.9354 18.5513 22.2084 15.4056C22.2084 12.2621 20.2379 12.4643 20.2379 8.60728C20.2379 5.59457 17.3824 2.16675 13 2.16675C8.61769 2.16675 5.76211 5.59457 5.76211 8.60728C5.76211 12.4643 3.79169 12.2621 3.79169 15.4056C4.06572 18.5632 6.89194 19.335 13 19.335Z" stroke="#555555" stroke-width="2" stroke-linecap="round" stroke-linejoin="round"/>
    <path id="Stroke 3" d="M15.5879 22.5955C14.1101 24.2364 11.8048 24.2559 10.3128 22.5955" stroke="#555555" stroke-width="2" stroke-linecap="round" stroke-linejoin="round"/>
    </g>
    </g>
    </symbol>
    <symbol id ="Acc" viewBox="0 0 22 24">
    <path d="M14.6182 11.1284C16.1539 10.0084 17.1539 8.19581 17.1539 6.15384C17.1539 2.76061 14.3933 0 11.0001 0C7.60685 0 4.84624 2.76061 4.84624 6.15384C4.84624 8.19581 5.84622 10.0084 7.38194 11.1284C3.56444 12.5892 0.846252 16.2905 0.846252 20.6154C0.846252 22.4817 2.36458 24 4.23086 24H17.7693C19.6356 24 21.1539 22.4817 21.1539 20.6154C21.1539 16.2905 18.4357 12.5892 14.6182 11.1284ZM6.69241 6.15384C6.69241 3.77859 8.62483 1.84617 11.0001 1.84617C13.3753 1.84617 15.3078 3.77859 15.3078 6.15384C15.3078 8.52909 13.3753 10.4616 11.0001 10.4616C8.62483 10.4616 6.69241 8.52909 6.69241 6.15384ZM17.7693 22.1538H4.23086C3.38257 22.1538 2.69242 21.4637 2.69242 20.6153C2.69242 16.0344 6.41918 12.3076 11.0001 12.3076C15.5811 12.3076 19.3078 16.0344 19.3078 20.6153C19.3078 21.4637 18.6176 22.1538 17.7693 22.1538Z" fill="#555555"/>
    </symbol>
    <symbol id="bottom" viewBox="0 0 24 24">
    <path d="M3 13H15" stroke="white" stroke-width="2.5" stroke-linecap="round" stroke-linejoin="round"/>
    <path d="M3 6H21" stroke="white" stroke-width="2.5" stroke-linecap="round" stroke-linejoin="round"/>
    <path d="M3 20H9" stroke="white" stroke-width="2.5" stroke-linecap="round" stroke-linejoin="round"/>
    </symbol>
    <symbol id="free" viewBox="0 0 58 58">
    <path d="M53.9398 32.5048L52.4378 26.4969C52.8484 26.4097 53.1565 26.0454 53.1565 25.6089V24.6402C53.1565 22.537 51.4454 20.826 49.3424 20.826H42.5011V18.8281C42.5011 17.7932 41.6592 16.9513 40.6242 16.9513H27.9034L35.6337 13.8591C36.0994 13.6729 36.3259 13.1443 36.1397 12.6786C35.9534 12.213 35.4252 11.9864 34.9592 12.1727L28.6297 14.7044C30.5584 13.4669 32.4666 12.105 33.1931 11.1525C34.6074 9.2982 34.2492 6.63903 32.3949 5.22472C30.5406 3.81029 27.8815 4.1686 26.4671 6.0229C25.4338 7.37797 24.0703 11.1855 23.1879 13.8685C22.3054 11.1857 20.942 7.37797 19.9086 6.0229C18.4944 4.1686 15.8351 3.81051 13.9808 5.22472C12.1265 6.63892 11.7684 9.29808 13.1827 11.1525C13.9091 12.1051 15.8172 13.4669 17.7461 14.7044L11.4166 12.1727C10.9507 11.9861 10.4223 12.2129 10.2361 12.6786C10.0497 13.1443 10.2763 13.6729 10.742 13.8591L18.4723 16.9513H5.75152C4.71658 16.9513 3.87467 17.7932 3.87467 18.8281V35.2958C3.87467 35.7973 4.28124 36.204 4.78285 36.204C5.28434 36.204 5.69102 35.7974 5.69102 35.2958V18.8281C5.69102 18.7947 5.7181 18.7676 5.75152 18.7676H40.6241C40.6575 18.7676 40.6846 18.7947 40.6846 18.8281V35.296C40.6846 35.7975 41.0912 36.2042 41.5928 36.2042C42.0943 36.2042 42.501 35.7976 42.501 35.296V34.2665H53.2135C53.2145 34.2665 53.2153 34.2667 53.2164 34.2667C53.2174 34.2667 53.2183 34.2666 53.2193 34.2666C54.5374 34.2676 55.6567 35.1329 56.0409 36.3251H53.217C52.7155 36.3251 52.3089 36.7316 52.3089 37.2332V39.1706C52.3089 40.7396 53.5853 42.0161 55.1544 42.0161H56.1836V46.0119H53.809C53.029 43.7596 50.8879 42.1371 48.3736 42.1371C45.8593 42.1371 43.7181 43.7595 42.9381 46.0119H42.5009V39.1705C42.5009 38.669 42.0943 38.2623 41.5927 38.2623C41.0912 38.2623 40.6845 38.6689 40.6845 39.1705V46.0117H21.8426C21.0625 43.7595 18.9214 42.137 16.4071 42.137C13.8928 42.137 11.7516 43.7594 10.9716 46.0117H5.75152C5.7181 46.0117 5.69102 45.9847 5.69102 45.9513V43.9533H9.6263C10.1278 43.9533 10.5345 43.5467 10.5345 43.0451C10.5345 42.5435 10.1279 42.137 9.6263 42.137H0.908176C0.40668 42.137 0 42.5435 0 43.0451C0 43.5467 0.406566 43.9533 0.908176 43.9533H3.87479V45.9513C3.87479 46.9862 4.71669 47.8281 5.75163 47.8281H10.6572C10.6569 47.8483 10.6556 47.8683 10.6556 47.8886C10.6556 51.0599 13.2358 53.6401 16.4071 53.6401C19.5784 53.6401 22.1586 51.0599 22.1586 47.8886C22.1586 47.8682 22.1572 47.8483 22.157 47.8281H42.6235C42.6233 47.8483 42.622 47.8683 42.622 47.8886C42.622 51.0599 45.2022 53.6401 48.3735 53.6401C51.5448 53.6401 54.125 51.0599 54.125 47.8886C54.125 47.8682 54.1236 47.8483 54.1234 47.8281H57.0917C57.5932 47.8281 57.9999 47.4215 57.9999 46.9199V37.2331C58 34.8413 56.2354 32.8541 53.9398 32.5048ZM19.5863 13.7138C16.004 11.4877 14.9415 10.4635 14.6269 10.051C13.82 8.99302 14.0243 7.47584 15.0824 6.66894C15.5185 6.33635 16.0326 6.1756 16.5429 6.1756C17.2704 6.1756 17.9902 6.50253 18.4645 7.12444C19.343 8.27629 20.7188 12.1531 21.6271 14.9467C21.0141 14.5858 20.3095 14.1634 19.5863 13.7138ZM24.7489 14.9466C25.6572 12.1531 27.033 8.2764 27.9114 7.12433C28.7183 6.0664 30.2354 5.86215 31.2934 6.66894C32.3514 7.47584 32.5557 8.99302 31.7489 10.051C31.4343 10.4634 30.3717 11.4877 26.7897 13.7137C26.0666 14.1632 25.362 14.5857 24.7489 14.9466ZM42.5011 22.6422H49.3424C50.444 22.6422 51.3403 23.5384 51.3403 24.6401V24.7006H42.5011V22.6422ZM42.5011 32.4502V26.5169H50.5707L52.054 32.4502H42.5011ZM16.4071 51.8239C14.2372 51.8239 12.4718 50.0585 12.4718 47.8886C12.4718 45.7187 14.2372 43.9533 16.4071 43.9533C18.577 43.9533 20.3424 45.7187 20.3424 47.8886C20.3424 50.0585 18.577 51.8239 16.4071 51.8239ZM48.3737 51.8239C46.2038 51.8239 44.4384 50.0585 44.4384 47.8886C44.4384 45.7187 46.2038 43.9533 48.3737 43.9533C50.5436 43.9533 52.309 45.7187 52.309 47.8886C52.309 50.0585 50.5436 51.8239 48.3737 51.8239ZM56.1838 40.1996H55.1545C54.5869 40.1996 54.1252 39.7379 54.1252 39.1703V38.1411H56.1836V40.1996H56.1838Z" fill="#7AC751"/>
    <path d="M16.4075 46.0117C15.3725 46.0117 14.5306 46.8536 14.5306 47.8886C14.5306 48.9235 15.3725 49.7654 16.4075 49.7654C17.4424 49.7654 18.2843 48.9235 18.2843 47.8886C18.2843 46.8536 17.4424 46.0117 16.4075 46.0117Z" fill="#7AC751"/>
    <path d="M48.3734 46.0117C47.3385 46.0117 46.4966 46.8536 46.4966 47.8886C46.4966 48.9235 47.3385 49.7654 48.3734 49.7654C49.4084 49.7654 50.2503 48.9235 50.2503 47.8886C50.2503 46.8536 49.4084 46.0117 48.3734 46.0117Z" fill="#7AC751"/>
    <path d="M37.7185 42.137H24.1569C23.6554 42.137 23.2487 42.5435 23.2487 43.0451C23.2487 43.5467 23.6553 43.9533 24.1569 43.9533H37.7185C38.22 43.9533 38.6266 43.5467 38.6266 43.0451C38.6266 42.5435 38.2201 42.137 37.7185 42.137Z" fill="#7AC751"/>
    <path d="M14.4702 38.2622H2.84598C2.34448 38.2622 1.93781 38.6688 1.93781 39.1704C1.93781 39.672 2.34437 40.0786 2.84598 40.0786H14.4702C14.9717 40.0786 15.3784 39.672 15.3784 39.1704C15.3784 38.6688 14.9717 38.2622 14.4702 38.2622Z" fill="#7AC751"/>
    <path d="M14.4697 24.7004H10.5949C10.0934 24.7004 9.68677 25.107 9.68677 25.6086V33.3581C9.68677 33.8596 10.0933 34.2663 10.5949 34.2663C11.0966 34.2663 11.5031 33.8597 11.5031 33.3581V30.3915H13.5011C14.0026 30.3915 14.4092 29.9849 14.4092 29.4833C14.4092 28.9817 14.0027 28.5751 13.5011 28.5751H11.5031V26.5168H14.4697C14.9712 26.5168 15.3779 26.1102 15.3779 25.6086C15.3778 25.1071 14.9712 24.7004 14.4697 24.7004Z" fill="#7AC751"/>
    <path d="M21.6164 30.8173C22.5253 30.222 23.1273 29.1954 23.1273 28.0303C23.1273 26.1942 21.6335 24.7004 19.7974 24.7004H17.3756C16.8741 24.7004 16.4675 25.107 16.4675 25.6086V33.3581C16.4675 33.8596 16.874 34.2663 17.3756 34.2663C17.8773 34.2663 18.2838 33.8597 18.2838 33.3581V31.3601H19.7957L21.4634 33.8617C21.6384 34.1242 21.9263 34.2663 22.2198 34.2663C22.393 34.2663 22.5679 34.2169 22.7226 34.1136C23.1401 33.8354 23.2528 33.2715 22.9745 32.8543L21.6164 30.8173ZM19.7974 29.5439H18.2838V26.5168H19.7974C20.632 26.5168 21.3109 27.1957 21.3109 28.0303C21.3109 28.865 20.632 29.5439 19.7974 29.5439Z" fill="#7AC751"/>
    <path d="M28.9997 32.45H26.0331V30.3885C26.0532 30.3899 26.0732 30.3916 26.0936 30.3916H28.031C28.5325 30.3916 28.9391 29.985 28.9391 29.4834C28.9391 28.9818 28.5326 28.5752 28.031 28.5752H26.0936C26.0731 28.5752 26.0532 28.5769 26.0331 28.5783V26.5168H28.9997C29.5012 26.5168 29.9079 26.1102 29.9079 25.6086C29.9079 25.1071 29.5014 24.7004 28.9997 24.7004H25.125C24.6235 24.7004 24.2168 25.107 24.2168 25.6086V33.3581C24.2168 33.8596 24.6234 34.2663 25.125 34.2663H28.9997C29.5012 34.2663 29.9079 33.8597 29.9079 33.3581C29.9079 32.8565 29.5012 32.45 28.9997 32.45Z" fill="#7AC751"/>
    <path d="M35.781 32.45H32.8144V30.3916H33.8437C34.3452 30.3916 34.7518 29.985 34.7518 29.4834C34.7518 28.9818 34.3453 28.5752 33.8437 28.5752H32.8144V26.5168H35.781C36.2825 26.5168 36.6892 26.1102 36.6892 25.6086C36.6892 25.1071 36.2826 24.7004 35.781 24.7004H31.9062C31.4047 24.7004 30.998 25.107 30.998 25.6086V33.3581C30.998 33.8596 31.4046 34.2663 31.9062 34.2663H35.781C36.2825 34.2663 36.6892 33.8597 36.6892 33.3581C36.6892 32.8565 36.2825 32.45 35.781 32.45Z" fill="#7AC751"/>
    </symbol>
    <symbol id="gift" viewBox="0 0 60 60">
    <mask id="path-1-outside-1_2_225" maskUnits="userSpaceOnUse" x="0" y="0" width="60" height="60" fill="black">
    <rect fill="white" width="60" height="60"/>
    <path d="M7.42459 18.7252C6.4521 19.215 5.83715 20.2095 5.83346 21.2984V28.0651C5.83346 29.1328 6.69904 29.9984 7.76679 29.9984V56.0984C7.76679 57.7 9.06517 58.9984 10.6668 58.9984H49.3335C50.9351 58.9984 52.2335 57.7 52.2335 56.0984V29.9984C53.3012 29.9984 54.1668 29.1328 54.1668 28.0651V21.2984C54.1631 20.2095 53.5482 19.215 52.5757 18.7252C56.597 16.1471 58.7942 11.334 58.917 11.0576C59.0499 10.7585 59.0224 10.4126 58.8441 10.1382C58.6657 9.86388 58.3607 9.69838 58.0335 9.69842H54.1668V5.83175C54.167 5.4564 53.9498 5.11488 53.6099 4.95578C53.2699 4.79668 52.8686 4.84875 52.5805 5.08935L49.3528 7.78442C47.881 5.10025 45.6566 2.90483 42.9535 1.46822C42.3384 1.12871 41.6405 0.968309 40.9389 1.00518C34.4642 1.41022 31.3631 6.64278 30.0001 10.1818C28.6313 6.64665 25.5303 1.42762 19.0613 1.02355C18.3601 0.984053 17.6619 1.14285 17.0468 1.48175C14.3484 2.91585 12.1268 5.10584 10.6542 7.78345L7.41879 5.08838C7.13054 4.84829 6.72939 4.79665 6.38973 4.95592C6.05007 5.11519 5.83322 5.4566 5.83346 5.83175V9.69842H1.96679C1.63957 9.69838 1.33454 9.86388 1.1562 10.1382C0.977856 10.4126 0.950408 10.7585 1.08326 11.0576C1.20603 11.334 3.40326 16.1471 7.42459 18.7252V18.7252ZM23.2335 20.3318V28.0651H7.76679V21.2984C7.76679 20.7645 8.19958 20.3318 8.73346 20.3318H23.2335ZM25.0991 14.6439C22.8524 12.7087 21.2871 10.1027 20.6341 7.21022C23.6878 8.54808 25.2838 12.1915 25.8618 13.8135C25.5762 14.0597 25.3202 14.3384 25.0991 14.6439ZM26.1335 17.4318C26.1335 15.8301 27.4318 14.5318 29.0335 14.5318H30.9668C32.5684 14.5318 33.8668 15.8301 33.8668 17.4318V18.3984H26.1335V17.4318ZM34.8335 28.0651H25.1668V20.3318H34.8335V28.0651ZM34.1384 13.8135C34.7184 12.1915 36.3134 8.54808 39.3662 7.21022C38.7137 10.1029 37.1483 12.709 34.9011 14.6439C34.68 14.3384 34.424 14.0597 34.1384 13.8135ZM9.70013 56.0984V29.9984H25.1668V57.0651H10.6668C10.1329 57.0651 9.70013 56.6323 9.70013 56.0984ZM27.1001 57.0651V29.9984H32.9001V57.0651H27.1001ZM50.3001 56.0984C50.3001 56.6323 49.8673 57.0651 49.3335 57.0651H34.8335V29.9984H50.3001V56.0984ZM51.2668 20.3318C51.8007 20.3318 52.2335 20.7645 52.2335 21.2984V28.0651H36.7668V20.3318H51.2668ZM53.2001 11.6318H56.4327C55.089 13.945 51.9145 18.3984 47.4001 18.3984H45.2348C46.9031 17.036 48.3486 15.4216 49.5191 13.6134C50.2791 12.4468 50.4953 11.0078 50.1116 9.66942L52.2335 7.89848V10.6651C52.2335 11.199 52.6663 11.6318 53.2001 11.6318ZM41.0598 2.93175C41.4001 2.91682 41.7377 2.99788 42.0342 3.16568C43.459 3.93902 46.9139 6.14785 48.2131 10.0435C48.5007 10.8848 48.3856 11.8115 47.9009 12.5569C46.8201 14.2089 44.5697 17.1331 41.5325 18.3984H35.8001V17.4318C35.8 17.11 35.7676 16.7891 35.7035 16.4738C39.6668 13.6705 41.0414 8.79072 41.4551 6.74525C41.5562 6.25263 41.391 5.74313 41.0201 5.40352C40.646 5.05359 40.1155 4.92619 39.6233 5.06808C35.4193 6.25225 33.2926 10.5336 32.4284 12.8498C32.0306 12.7206 31.6175 12.6442 31.1998 12.6226C31.9141 9.94975 34.3443 3.35515 41.0598 2.93175V2.93175ZM11.7872 10.0571C13.0835 6.16622 16.5403 3.95642 17.9651 3.18695C18.2625 3.02065 18.6 2.9397 18.9405 2.95302C25.6501 3.37255 28.0813 9.94782 28.8005 12.6197C28.3834 12.6414 27.971 12.7178 27.5738 12.8469C26.7096 10.5269 24.5829 6.24935 20.3789 5.06518C19.8867 4.92488 19.3569 5.05209 18.9821 5.40062C18.6122 5.74084 18.4482 6.25025 18.55 6.74235C18.9589 8.79072 20.3335 13.6734 24.2968 16.4738C24.2326 16.7891 24.2002 17.11 24.2001 17.4318V18.3984H18.4678C15.4305 17.135 13.1782 14.2137 12.0994 12.5627C11.6156 11.8199 11.5005 10.8958 11.7872 10.0571ZM6.80013 11.6318C7.334 11.6318 7.76679 11.199 7.76679 10.6651V7.89462L9.89346 9.66555C9.50515 11.0066 9.72007 12.4503 10.4822 13.6202C11.6516 15.426 13.0958 17.0381 14.7626 18.3984H12.6001C8.09836 18.3984 4.91899 13.946 3.57049 11.6318H6.80013Z"/>
    </mask>
    <path d="M7.42459 18.7252C6.4521 19.215 5.83715 20.2095 5.83346 21.2984V28.0651C5.83346 29.1328 6.69904 29.9984 7.76679 29.9984V56.0984C7.76679 57.7 9.06517 58.9984 10.6668 58.9984H49.3335C50.9351 58.9984 52.2335 57.7 52.2335 56.0984V29.9984C53.3012 29.9984 54.1668 29.1328 54.1668 28.0651V21.2984C54.1631 20.2095 53.5482 19.215 52.5757 18.7252C56.597 16.1471 58.7942 11.334 58.917 11.0576C59.0499 10.7585 59.0224 10.4126 58.8441 10.1382C58.6657 9.86388 58.3607 9.69838 58.0335 9.69842H54.1668V5.83175C54.167 5.4564 53.9498 5.11488 53.6099 4.95578C53.2699 4.79668 52.8686 4.84875 52.5805 5.08935L49.3528 7.78442C47.881 5.10025 45.6566 2.90483 42.9535 1.46822C42.3384 1.12871 41.6405 0.968309 40.9389 1.00518C34.4642 1.41022 31.3631 6.64278 30.0001 10.1818C28.6313 6.64665 25.5303 1.42762 19.0613 1.02355C18.3601 0.984053 17.6619 1.14285 17.0468 1.48175C14.3484 2.91585 12.1268 5.10584 10.6542 7.78345L7.41879 5.08838C7.13054 4.84829 6.72939 4.79665 6.38973 4.95592C6.05007 5.11519 5.83322 5.4566 5.83346 5.83175V9.69842H1.96679C1.63957 9.69838 1.33454 9.86388 1.1562 10.1382C0.977856 10.4126 0.950408 10.7585 1.08326 11.0576C1.20603 11.334 3.40326 16.1471 7.42459 18.7252V18.7252ZM23.2335 20.3318V28.0651H7.76679V21.2984C7.76679 20.7645 8.19958 20.3318 8.73346 20.3318H23.2335ZM25.0991 14.6439C22.8524 12.7087 21.2871 10.1027 20.6341 7.21022C23.6878 8.54808 25.2838 12.1915 25.8618 13.8135C25.5762 14.0597 25.3202 14.3384 25.0991 14.6439ZM26.1335 17.4318C26.1335 15.8301 27.4318 14.5318 29.0335 14.5318H30.9668C32.5684 14.5318 33.8668 15.8301 33.8668 17.4318V18.3984H26.1335V17.4318ZM34.8335 28.0651H25.1668V20.3318H34.8335V28.0651ZM34.1384 13.8135C34.7184 12.1915 36.3134 8.54808 39.3662 7.21022C38.7137 10.1029 37.1483 12.709 34.9011 14.6439C34.68 14.3384 34.424 14.0597 34.1384 13.8135ZM9.70013 56.0984V29.9984H25.1668V57.0651H10.6668C10.1329 57.0651 9.70013 56.6323 9.70013 56.0984ZM27.1001 57.0651V29.9984H32.9001V57.0651H27.1001ZM50.3001 56.0984C50.3001 56.6323 49.8673 57.0651 49.3335 57.0651H34.8335V29.9984H50.3001V56.0984ZM51.2668 20.3318C51.8007 20.3318 52.2335 20.7645 52.2335 21.2984V28.0651H36.7668V20.3318H51.2668ZM53.2001 11.6318H56.4327C55.089 13.945 51.9145 18.3984 47.4001 18.3984H45.2348C46.9031 17.036 48.3486 15.4216 49.5191 13.6134C50.2791 12.4468 50.4953 11.0078 50.1116 9.66942L52.2335 7.89848V10.6651C52.2335 11.199 52.6663 11.6318 53.2001 11.6318ZM41.0598 2.93175C41.4001 2.91682 41.7377 2.99788 42.0342 3.16568C43.459 3.93902 46.9139 6.14785 48.2131 10.0435C48.5007 10.8848 48.3856 11.8115 47.9009 12.5569C46.8201 14.2089 44.5697 17.1331 41.5325 18.3984H35.8001V17.4318C35.8 17.11 35.7676 16.7891 35.7035 16.4738C39.6668 13.6705 41.0414 8.79072 41.4551 6.74525C41.5562 6.25263 41.391 5.74313 41.0201 5.40352C40.646 5.05359 40.1155 4.92619 39.6233 5.06808C35.4193 6.25225 33.2926 10.5336 32.4284 12.8498C32.0306 12.7206 31.6175 12.6442 31.1998 12.6226C31.9141 9.94975 34.3443 3.35515 41.0598 2.93175V2.93175ZM11.7872 10.0571C13.0835 6.16622 16.5403 3.95642 17.9651 3.18695C18.2625 3.02065 18.6 2.9397 18.9405 2.95302C25.6501 3.37255 28.0813 9.94782 28.8005 12.6197C28.3834 12.6414 27.971 12.7178 27.5738 12.8469C26.7096 10.5269 24.5829 6.24935 20.3789 5.06518C19.8867 4.92488 19.3569 5.05209 18.9821 5.40062C18.6122 5.74084 18.4482 6.25025 18.55 6.74235C18.9589 8.79072 20.3335 13.6734 24.2968 16.4738C24.2326 16.7891 24.2002 17.11 24.2001 17.4318V18.3984H18.4678C15.4305 17.135 13.1782 14.2137 12.0994 12.5627C11.6156 11.8199 11.5005 10.8958 11.7872 10.0571ZM6.80013 11.6318C7.334 11.6318 7.76679 11.199 7.76679 10.6651V7.89462L9.89346 9.66555C9.50515 11.0066 9.72007 12.4503 10.4822 13.6202C11.6516 15.426 13.0958 17.0381 14.7626 18.3984H12.6001C8.09836 18.3984 4.91899 13.946 3.57049 11.6318H6.80013Z" fill="#7AC751"/>
    <path d="M7.42459 18.7252C6.4521 19.215 5.83715 20.2095 5.83346 21.2984V28.0651C5.83346 29.1328 6.69904 29.9984 7.76679 29.9984V56.0984C7.76679 57.7 9.06517 58.9984 10.6668 58.9984H49.3335C50.9351 58.9984 52.2335 57.7 52.2335 56.0984V29.9984C53.3012 29.9984 54.1668 29.1328 54.1668 28.0651V21.2984C54.1631 20.2095 53.5482 19.215 52.5757 18.7252C56.597 16.1471 58.7942 11.334 58.917 11.0576C59.0499 10.7585 59.0224 10.4126 58.8441 10.1382C58.6657 9.86388 58.3607 9.69838 58.0335 9.69842H54.1668V5.83175C54.167 5.4564 53.9498 5.11488 53.6099 4.95578C53.2699 4.79668 52.8686 4.84875 52.5805 5.08935L49.3528 7.78442C47.881 5.10025 45.6566 2.90483 42.9535 1.46822C42.3384 1.12871 41.6405 0.968309 40.9389 1.00518C34.4642 1.41022 31.3631 6.64278 30.0001 10.1818C28.6313 6.64665 25.5303 1.42762 19.0613 1.02355C18.3601 0.984053 17.6619 1.14285 17.0468 1.48175C14.3484 2.91585 12.1268 5.10584 10.6542 7.78345L7.41879 5.08838C7.13054 4.84829 6.72939 4.79665 6.38973 4.95592C6.05007 5.11519 5.83322 5.4566 5.83346 5.83175V9.69842H1.96679C1.63957 9.69838 1.33454 9.86388 1.1562 10.1382C0.977856 10.4126 0.950408 10.7585 1.08326 11.0576C1.20603 11.334 3.40326 16.1471 7.42459 18.7252V18.7252ZM23.2335 20.3318V28.0651H7.76679V21.2984C7.76679 20.7645 8.19958 20.3318 8.73346 20.3318H23.2335ZM25.0991 14.6439C22.8524 12.7087 21.2871 10.1027 20.6341 7.21022C23.6878 8.54808 25.2838 12.1915 25.8618 13.8135C25.5762 14.0597 25.3202 14.3384 25.0991 14.6439ZM26.1335 17.4318C26.1335 15.8301 27.4318 14.5318 29.0335 14.5318H30.9668C32.5684 14.5318 33.8668 15.8301 33.8668 17.4318V18.3984H26.1335V17.4318ZM34.8335 28.0651H25.1668V20.3318H34.8335V28.0651ZM34.1384 13.8135C34.7184 12.1915 36.3134 8.54808 39.3662 7.21022C38.7137 10.1029 37.1483 12.709 34.9011 14.6439C34.68 14.3384 34.424 14.0597 34.1384 13.8135ZM9.70013 56.0984V29.9984H25.1668V57.0651H10.6668C10.1329 57.0651 9.70013 56.6323 9.70013 56.0984ZM27.1001 57.0651V29.9984H32.9001V57.0651H27.1001ZM50.3001 56.0984C50.3001 56.6323 49.8673 57.0651 49.3335 57.0651H34.8335V29.9984H50.3001V56.0984ZM51.2668 20.3318C51.8007 20.3318 52.2335 20.7645 52.2335 21.2984V28.0651H36.7668V20.3318H51.2668ZM53.2001 11.6318H56.4327C55.089 13.945 51.9145 18.3984 47.4001 18.3984H45.2348C46.9031 17.036 48.3486 15.4216 49.5191 13.6134C50.2791 12.4468 50.4953 11.0078 50.1116 9.66942L52.2335 7.89848V10.6651C52.2335 11.199 52.6663 11.6318 53.2001 11.6318ZM41.0598 2.93175C41.4001 2.91682 41.7377 2.99788 42.0342 3.16568C43.459 3.93902 46.9139 6.14785 48.2131 10.0435C48.5007 10.8848 48.3856 11.8115 47.9009 12.5569C46.8201 14.2089 44.5697 17.1331 41.5325 18.3984H35.8001V17.4318C35.8 17.11 35.7676 16.7891 35.7035 16.4738C39.6668 13.6705 41.0414 8.79072 41.4551 6.74525C41.5562 6.25263 41.391 5.74313 41.0201 5.40352C40.646 5.05359 40.1155 4.92619 39.6233 5.06808C35.4193 6.25225 33.2926 10.5336 32.4284 12.8498C32.0306 12.7206 31.6175 12.6442 31.1998 12.6226C31.9141 9.94975 34.3443 3.35515 41.0598 2.93175V2.93175ZM11.7872 10.0571C13.0835 6.16622 16.5403 3.95642 17.9651 3.18695C18.2625 3.02065 18.6 2.9397 18.9405 2.95302C25.6501 3.37255 28.0813 9.94782 28.8005 12.6197C28.3834 12.6414 27.971 12.7178 27.5738 12.8469C26.7096 10.5269 24.5829 6.24935 20.3789 5.06518C19.8867 4.92488 19.3569 5.05209 18.9821 5.40062C18.6122 5.74084 18.4482 6.25025 18.55 6.74235C18.9589 8.79072 20.3335 13.6734 24.2968 16.4738C24.2326 16.7891 24.2002 17.11 24.2001 17.4318V18.3984H18.4678C15.4305 17.135 13.1782 14.2137 12.0994 12.5627C11.6156 11.8199 11.5005 10.8958 11.7872 10.0571ZM6.80013 11.6318C7.334 11.6318 7.76679 11.199 7.76679 10.6651V7.89462L9.89346 9.66555C9.50515 11.0066 9.72007 12.4503 10.4822 13.6202C11.6516 15.426 13.0958 17.0381 14.7626 18.3984H12.6001C8.09836 18.3984 4.91899 13.946 3.57049 11.6318H6.80013Z" stroke="#7AC751" stroke-width="0.5" mask="url(#path-1-outside-1_2_225)"/>
    <path d="M12.6001 31.8059C11.9971 31.8059 11.5084 32.2947 11.5084 32.8976V34.8309C11.5084 35.4338 11.9971 35.9226 12.6001 35.9226C13.203 35.9226 13.6917 35.4338 13.6917 34.8309V32.8976C13.6917 32.2947 13.203 31.8059 12.6001 31.8059Z" fill="#7AC751" stroke="#7AC751" stroke-width="0.25"/>
    <path d="M12.6001 37.606C11.9971 37.606 11.5084 38.0947 11.5084 38.6976V54.1643C11.5084 54.7672 11.9971 55.256 12.6001 55.256C13.203 55.256 13.6917 54.7672 13.6917 54.1643V38.6976C13.6917 38.0947 13.203 37.606 12.6001 37.606Z" fill="#7AC751" stroke="#7AC751" stroke-width="0.25"/>
    <path d="M47.4003 35.9226C48.0032 35.9226 48.492 35.4338 48.492 34.8309V32.8976C48.492 32.2947 48.0032 31.8059 47.4003 31.8059C46.7974 31.8059 46.3087 32.2947 46.3087 32.8976V34.8309C46.3087 35.4338 46.7974 35.9226 47.4003 35.9226Z" fill="#7AC751" stroke="#7AC751" stroke-width="0.25"/>
    <path d="M47.4003 55.256C48.0032 55.256 48.492 54.7672 48.492 54.1643V38.6976C48.492 38.0947 48.0032 37.606 47.4003 37.606C46.7974 37.606 46.3087 38.0947 46.3087 38.6976V54.1643C46.3087 54.7672 46.7974 55.256 47.4003 55.256Z" fill="#7AC751" stroke="#7AC751" stroke-width="0.25"/>
    </symbol>
    <symbol id="wallet" viewBox="0 0 58 58">
    <g clip-path="url(#clip0_2_212)">
    <path d="M55.3638 29.2433V21.0915C55.3638 18.3273 53.2197 16.0793 50.5107 15.8613L42.9404 2.6385C42.2388 1.41557 41.106 0.541509 39.7505 0.178561C38.4014 -0.181914 36.9906 0.00740666 35.7831 0.710192L9.83148 15.8188H5.27357C2.36567 15.8188 0.000888824 18.1834 0.000888824 21.0915V52.7273C0.000888824 55.6352 2.36555 58 5.27357 58H50.0911C52.999 58 55.3638 55.6353 55.3638 52.7273V44.5755C56.8948 44.0296 58 42.5801 58 40.8639V32.9549C58 31.2387 56.8948 29.7892 55.3638 29.2433ZM47.4474 15.8188H35.9582L44.5752 10.802L47.4474 15.8188ZM43.2654 8.51424L30.7187 15.8188H25.5145L41.9641 6.24152L43.2654 8.51424ZM37.1102 2.98859C37.7063 2.63973 38.4026 2.54705 39.0682 2.72475C39.7415 2.90493 40.3027 3.34005 40.6516 3.94891L40.6543 3.95373L20.2751 15.8188H15.0712L37.1102 2.98859ZM52.7273 52.7273C52.7273 54.1806 51.5443 55.3636 50.0911 55.3636H5.27357C3.8203 55.3636 2.63729 54.1806 2.63729 52.7273V21.0915C2.63729 19.6382 3.8203 18.4552 5.27357 18.4552H50.0911C51.5443 18.4552 52.7273 19.6382 52.7273 21.0915V29.0004H44.8184C40.4571 29.0004 36.9094 32.5481 36.9094 36.9094C36.9094 41.2707 40.4571 44.8183 44.8184 44.8183H52.7273V52.7273ZM55.3638 40.8639C55.3638 41.5911 54.7729 42.1821 54.0456 42.1821H44.8184C41.9105 42.1821 39.5457 39.8174 39.5457 36.9094C39.5457 34.0015 41.9104 31.6367 44.8184 31.6367H54.0456C54.7728 31.6367 55.3638 32.2275 55.3638 32.9549V40.8639Z" fill="#7AC751"/>
    <path d="M44.818 34.2732C43.3647 34.2732 42.1817 35.4562 42.1817 36.9095C42.1817 38.3627 43.3647 39.5457 44.818 39.5457C46.2712 39.5457 47.4542 38.3627 47.4542 36.9095C47.4544 35.4562 46.2713 34.2732 44.818 34.2732Z" fill="#7AC751"/>
    </g>
    <defs>
    <clipPath id="clip0_2_212">
    <rect width="58" height="58" fill="white"/>
    </clipPath>
    </defs>
    </symbol>
    <symbol id="support" viewBox="0 0 54 58">
    <path d="M47.9608 23.9752H47.8172V20.4579C47.8172 9.15933 38.658 0 27.3593 0C16.0606 0 6.90141 9.15933 6.90141 20.4579V23.9752H6.04008C2.88163 23.9752 0.441075 26.7747 0.441075 30.005V38.9777C0.361523 42.1086 2.83519 44.7111 5.96602 44.7907C5.99075 44.7913 6.01535 44.7918 6.04008 44.792H11.3519C12.1043 44.7567 12.6856 44.118 12.6502 43.3656C12.6489 43.3385 12.6469 43.3115 12.644 43.2845V25.6979C12.644 24.8366 12.1415 23.9751 11.3519 23.9751H9.7727V20.4578C9.7727 10.745 17.6466 2.87115 27.3593 2.87115C37.0721 2.87115 44.9459 10.745 44.9459 20.4578V23.9751H43.3667C42.5771 23.9751 42.0747 24.8364 42.0747 25.6979V43.2845C41.9946 44.0335 42.5367 44.7056 43.2857 44.7857C43.3126 44.7886 43.3397 44.7907 43.3667 44.7919H45.0177L44.8741 45.0072C42.7201 47.8698 39.3402 49.5465 35.7578 49.5294C34.9735 45.6839 31.2201 43.2021 27.3746 43.9865C24.086 44.6571 21.715 47.5372 21.6885 50.8934C21.7278 54.8297 24.9302 58 28.8667 57.9997C30.8154 57.9681 32.6728 57.1685 34.035 55.7745C34.954 54.8333 35.5562 53.6288 35.7578 52.3289C40.244 52.3459 44.4748 50.2437 47.1711 46.6581L48.535 44.6482C51.6216 44.4329 53.5597 42.4948 53.5597 39.6952V30.7225C53.5598 27.6361 51.2628 23.9752 47.9608 23.9752ZM9.7727 41.9207H6.04008C4.49438 41.8831 3.27183 40.5997 3.30948 39.054C3.31017 39.0286 3.31113 39.0031 3.31237 38.9776V30.0048C3.31237 28.3539 4.46086 26.8464 6.04008 26.8464H9.7727V41.9207ZM31.9534 53.7648C31.1579 54.6273 30.0402 55.1213 28.8668 55.1287C26.5314 55.0916 24.6361 53.228 24.5599 50.8935C24.5589 48.5545 26.4543 46.6576 28.7933 46.6566C31.1323 46.6557 33.0292 48.551 33.0302 50.8901C33.0302 50.8912 33.0302 50.8924 33.0302 50.8935C33.09 51.9593 32.6992 53.0011 31.9534 53.7648ZM50.6885 39.6955C50.6885 41.6336 48.8222 41.9207 47.9608 41.9207H44.9459V26.8465H47.9608C49.54 26.8465 50.6885 29.0718 50.6885 30.7227V39.6955Z" fill="#7AC751"/>
    </symbol>
    <symbol id="arrow" viewBox="0 0 12 9">
    <path d="M11.3879 2.98231L8.87805 0.209356C8.75672 0.0753053 8.59217 0 8.4206 0C8.24903 0 8.08448 0.0753053 7.96314 0.209356C7.84184 0.343447 7.7737 0.52529 7.7737 0.714895C7.7737 0.9045 7.84184 1.08634 7.96314 1.22043L10.2634 3.76386H1.60212C1.43051 3.76386 1.26593 3.83919 1.14459 3.97329C1.02325 4.10739 0.955078 4.28926 0.955078 4.47891C0.955078 4.66855 1.02325 4.85042 1.14459 4.98452C1.26593 5.11862 1.43051 5.19395 1.60212 5.19395H10.3028L7.96314 7.77885C7.90298 7.84526 7.85526 7.92412 7.8227 8.01093C7.79014 8.09773 7.77338 8.19078 7.77338 8.28475C7.77338 8.37872 7.79014 8.47176 7.8227 8.55857C7.85526 8.64537 7.90298 8.72424 7.96314 8.79064C8.08448 8.9247 8.24903 9 8.4206 9C8.59217 9 8.75672 8.9247 8.87805 8.79064L11.3886 6.01697C11.7515 5.61381 11.9552 5.0682 11.9551 4.49949C11.955 3.93079 11.751 3.38529 11.3879 2.98231Z" fill="#757575"/>
    </symbol>
    <symbol id="review" viewBox="0 0 68 11">
    <path d="M17.7302 3.85733L18.0376 3.81471L18.1805 3.53926L19.4653 1.06195C19.4654 1.06191 19.4654 1.06187 19.4654 1.06183C19.467 1.05886 19.4677 1.0583 19.4673 1.05872C19.467 1.05899 19.4672 1.05866 19.4686 1.05787C19.4722 1.0559 19.4818 1.0521 19.4965 1.05215C19.5112 1.05219 19.5217 1.0561 19.5264 1.05874L19.5284 1.06001L19.5288 1.06037L19.5289 1.06042L19.529 1.06064L19.5303 1.06282L19.5303 1.06284L20.8147 3.53926L20.9576 3.81471L21.265 3.85733L24.1399 4.2559L24.1404 4.25596C24.1431 4.25634 24.1456 4.25678 24.1477 4.25724L22.0828 6.17058L21.8418 6.39396L21.9002 6.71737L22.3895 9.42506C22.3821 9.42955 22.3733 9.43251 22.365 9.43324C22.3578 9.43387 22.3496 9.43316 22.3379 9.42733L22.3378 9.42728L19.7659 8.14173L19.4976 8.00764L19.2293 8.14173L16.6574 9.42728L16.6556 9.42821C16.6441 9.43398 16.6363 9.43456 16.6298 9.43399C16.6218 9.43329 16.613 9.43035 16.6056 9.42572L17.095 6.71737L17.1534 6.39396L16.9124 6.17058L14.8475 4.25724C14.8496 4.25678 14.8521 4.25634 14.8548 4.25596L14.8553 4.2559L17.7302 3.85733ZM22.3922 9.44004L22.9826 9.33336C23.0712 9.8255 22.5261 10.1923 22.0695 9.96397L22.3922 9.44004Z" fill="white" stroke="#7AC751" stroke-width="1.2"/>
    <path d="M3.62609 3.85757L3.93345 3.81496L4.07632 3.5395L5.36119 1.06219C5.36121 1.06215 5.36123 1.06211 5.36125 1.06207C5.3628 1.0591 5.36356 1.05854 5.36316 1.05896C5.36289 1.05924 5.36309 1.05891 5.36449 1.05812C5.368 1.05615 5.37763 1.05235 5.39231 1.05239C5.40705 1.05244 5.41757 1.05634 5.42225 1.05899L5.42422 1.06025L5.42465 1.06062L5.42469 1.06066L5.42486 1.06088L5.42616 1.06306L5.42618 1.06309L6.71058 3.5395L6.85344 3.81496L7.16081 3.85757L10.0358 4.25615L10.0362 4.2562C10.039 4.25659 10.0414 4.25703 10.0435 4.25748L7.97869 6.17083L7.73763 6.3942L7.79607 6.71761L8.28531 9.42531C8.27796 9.42979 8.26911 9.43276 8.2608 9.43348C8.25365 9.43411 8.24541 9.43341 8.23374 9.42757L8.23365 9.42752L5.66171 8.14197L5.39345 8.00789L5.12519 8.14197L2.55325 9.42752L2.5514 9.42845C2.53995 9.43422 2.53219 9.4348 2.52564 9.43423C2.51763 9.43354 2.50884 9.43059 2.50146 9.42597L2.99083 6.71761L3.04927 6.3942L2.8082 6.17083L0.74338 4.25748C0.745483 4.25703 0.747909 4.25659 0.750685 4.2562L0.751103 4.25615L3.62609 3.85757ZM8.28804 9.44028L8.87846 9.3336C8.96701 9.82574 8.42193 10.1925 7.96539 9.96421L8.28804 9.44028Z" fill="white" stroke="#7AC751" stroke-width="1.2"/>
    <path d="M31.8338 3.85733L32.1412 3.81471L32.2841 3.53926L33.5689 1.06195C33.5689 1.06191 33.569 1.06187 33.569 1.06183C33.5705 1.05886 33.5713 1.0583 33.5709 1.05872C33.5706 1.05899 33.5708 1.05866 33.5722 1.05787C33.5757 1.0559 33.5854 1.0521 33.6 1.05215C33.6148 1.05219 33.6253 1.0561 33.63 1.05874L33.632 1.06001L33.6324 1.06037L33.6324 1.06042L33.6326 1.06064L33.6339 1.06282L33.6339 1.06284L34.9183 3.53926L35.0612 3.81471L35.3685 3.85733L38.2435 4.2559L38.2439 4.25596C38.2467 4.25634 38.2491 4.25678 38.2512 4.25724L36.1864 6.17058L35.9454 6.39396L36.0038 6.71737L36.493 9.42506C36.4857 9.42955 36.4768 9.43251 36.4685 9.43324C36.4614 9.43387 36.4531 9.43316 36.4415 9.42733L36.4414 9.42728L33.8694 8.14173L33.6012 8.00764L33.3329 8.14173L30.761 9.42728L30.7591 9.42821C30.7477 9.43398 30.7399 9.43456 30.7334 9.43399C30.7254 9.43329 30.7166 9.43035 30.7092 9.42572L31.1986 6.71737L31.257 6.39396L31.0159 6.17058L28.9511 4.25724C28.9532 4.25678 28.9556 4.25634 28.9584 4.25596L28.9588 4.2559L31.8338 3.85733ZM36.4958 9.44004L37.0862 9.33336C37.1747 9.8255 36.6297 10.1923 36.1731 9.96397L36.4958 9.44004Z" fill="white" stroke="#7AC751" stroke-width="1.2"/>
    <path d="M45.9384 3.85733L46.2457 3.81471L46.3886 3.53926L47.6735 1.06195C47.6735 1.06191 47.6735 1.06187 47.6735 1.06183C47.6751 1.05886 47.6759 1.0583 47.6754 1.05872C47.6752 1.05899 47.6754 1.05866 47.6768 1.05787C47.6803 1.0559 47.6899 1.0521 47.7046 1.05215C47.7193 1.05219 47.7299 1.0561 47.7345 1.05874L47.7365 1.06001L47.7369 1.06037L47.737 1.06042L47.7371 1.06064L47.7384 1.06282L47.7385 1.06284L49.0229 3.53926L49.1657 3.81471L49.4731 3.85733L52.3481 4.2559L52.3485 4.25596C52.3513 4.25634 52.3537 4.25678 52.3558 4.25724L50.291 6.17058L50.0499 6.39396L50.1084 6.71737L50.5976 9.42506C50.5903 9.42955 50.5814 9.43251 50.5731 9.43324C50.5659 9.43387 50.5577 9.43316 50.546 9.42733L50.5459 9.42728L47.974 8.14173L47.7057 8.00764L47.4375 8.14173L44.8655 9.42728L44.8637 9.42821C44.8522 9.43398 44.8445 9.43456 44.8379 9.43399C44.8299 9.43329 44.8211 9.43035 44.8137 9.42572L45.3031 6.71737L45.3616 6.39396L45.1205 6.17058L43.0557 4.25724C43.0578 4.25678 43.0602 4.25634 43.063 4.25596L43.0634 4.2559L45.9384 3.85733ZM50.6003 9.44004L51.1907 9.33336C51.2793 9.8255 50.7342 10.1923 50.2777 9.96397L50.6003 9.44004Z" fill="white" stroke="#7AC751" stroke-width="1.2"/>
    <path d="M60.0429 3.85733L60.3503 3.81471L60.4932 3.53926L61.778 1.06195C61.778 1.06191 61.7781 1.06187 61.7781 1.06183C61.7796 1.05886 61.7804 1.0583 61.78 1.05872C61.7797 1.05899 61.7799 1.05866 61.7813 1.05787C61.7848 1.0559 61.7945 1.0521 61.8092 1.05215C61.8239 1.05219 61.8344 1.0561 61.8391 1.05874L61.8411 1.06001L61.8415 1.06037L61.8415 1.06042L61.8417 1.06064L61.843 1.06282L61.843 1.06284L63.1274 3.53926L63.2703 3.81471L63.5776 3.85733L66.4526 4.2559L66.453 4.25596C66.4558 4.25634 66.4583 4.25678 66.4604 4.25724L64.3955 6.17058L64.1545 6.39396L64.2129 6.71737L64.7022 9.42506C64.6948 9.42955 64.6859 9.43251 64.6776 9.43324C64.6705 9.43387 64.6623 9.43316 64.6506 9.42733L64.6505 9.42728L62.0785 8.14173L61.8103 8.00764L61.542 8.14173L58.9701 9.42728L58.9682 9.42821C58.9568 9.43398 58.949 9.43456 58.9425 9.43399C58.9345 9.43329 58.9257 9.43035 58.9183 9.42572L59.4077 6.71737L59.4661 6.39396L59.225 6.17058L57.1602 4.25724C57.1623 4.25678 57.1647 4.25634 57.1675 4.25596L57.1679 4.2559L60.0429 3.85733ZM64.7049 9.44004L65.2953 9.33336C65.3839 9.8255 64.8388 10.1923 64.3822 9.96397L64.7049 9.44004Z" fill="white" stroke="#7AC751" stroke-width="1.2"/>
    </symbol>
    <symbol id="4stars" viewBox="0 0 68 11">
    <path d="M17.7302 3.85733L18.0376 3.81471L18.1804 3.53926L19.4653 1.06195C19.4653 1.06191 19.4654 1.06187 19.4654 1.06183C19.4669 1.05886 19.4677 1.0583 19.4673 1.05872C19.467 1.05899 19.4672 1.05866 19.4686 1.05787C19.4721 1.0559 19.4818 1.0521 19.4964 1.05215C19.5112 1.05219 19.5217 1.0561 19.5264 1.05874L19.5283 1.06001L19.5288 1.06037L19.5288 1.06042L19.529 1.06064L19.5303 1.06282L19.5303 1.06284L20.8147 3.53926L20.9576 3.81471L21.2649 3.85733L24.1399 4.2559L24.1403 4.25596C24.1431 4.25634 24.1455 4.25678 24.1476 4.25724L22.0828 6.17058L21.8418 6.39396L21.9002 6.71737L22.3894 9.42506C22.3821 9.42955 22.3732 9.43251 22.3649 9.43324C22.3578 9.43387 22.3495 9.43316 22.3379 9.42733L22.3378 9.42728L19.7658 8.14173L19.4976 8.00764L19.2293 8.14173L16.6574 9.42728L16.6555 9.42821C16.6441 9.43398 16.6363 9.43456 16.6298 9.43399C16.6218 9.43329 16.613 9.43035 16.6056 9.42572L17.095 6.71737L17.1534 6.39396L16.9123 6.17058L14.8475 4.25724C14.8496 4.25678 14.852 4.25634 14.8548 4.25596L14.8552 4.2559L17.7302 3.85733ZM22.3922 9.44004L22.9826 9.33336C23.0711 9.8255 22.5261 10.1923 22.0695 9.96397L22.3922 9.44004Z" fill="white" stroke="#7AC751" stroke-width="1.2"/>
    <path d="M3.62609 3.85757L3.93345 3.81496L4.07632 3.5395L5.36119 1.06219C5.36121 1.06215 5.36123 1.06211 5.36125 1.06207C5.3628 1.0591 5.36356 1.05854 5.36316 1.05896C5.36289 1.05924 5.36309 1.05891 5.36449 1.05812C5.368 1.05615 5.37763 1.05235 5.39231 1.05239C5.40705 1.05244 5.41757 1.05634 5.42225 1.05899L5.42422 1.06025L5.42465 1.06062L5.42469 1.06066L5.42486 1.06088L5.42616 1.06306L5.42618 1.06309L6.71058 3.5395L6.85344 3.81496L7.16081 3.85757L10.0358 4.25615L10.0362 4.2562C10.039 4.25659 10.0414 4.25703 10.0435 4.25748L7.97869 6.17083L7.73763 6.3942L7.79607 6.71761L8.28531 9.42531C8.27796 9.42979 8.26911 9.43276 8.2608 9.43348C8.25365 9.43411 8.24541 9.43341 8.23374 9.42757L8.23365 9.42752L5.66171 8.14197L5.39345 8.00789L5.12519 8.14197L2.55325 9.42752L2.5514 9.42845C2.53995 9.43422 2.53219 9.4348 2.52564 9.43423C2.51763 9.43354 2.50884 9.43059 2.50146 9.42597L2.99083 6.71761L3.04927 6.3942L2.8082 6.17083L0.74338 4.25748C0.745483 4.25703 0.747909 4.25659 0.750685 4.2562L0.751103 4.25615L3.62609 3.85757ZM8.28804 9.44028L8.87846 9.3336C8.96701 9.82574 8.42193 10.1925 7.96539 9.96421L8.28804 9.44028Z" fill="white" stroke="#7AC751" stroke-width="1.2"/>
    <path d="M31.8339 3.85733L32.1412 3.81471L32.2841 3.53926L33.569 1.06195C33.569 1.06191 33.569 1.06187 33.569 1.06183C33.5706 1.05886 33.5713 1.0583 33.5709 1.05872C33.5707 1.05899 33.5709 1.05866 33.5723 1.05787C33.5758 1.0559 33.5854 1.0521 33.6001 1.05215C33.6148 1.05219 33.6253 1.0561 33.63 1.05874L33.632 1.06001L33.6324 1.06037L33.6325 1.06042L33.6326 1.06064L33.6339 1.06282L33.6339 1.06284L34.9183 3.53926L35.0612 3.81471L35.3686 3.85733L38.2436 4.2559L38.244 4.25596C38.2468 4.25634 38.2492 4.25678 38.2513 4.25724L36.1865 6.17058L35.9454 6.39396L36.0038 6.71737L36.4931 9.42506C36.4857 9.42955 36.4769 9.43251 36.4686 9.43324C36.4614 9.43387 36.4532 9.43316 36.4415 9.42733L36.4414 9.42728L33.8695 8.14173L33.6012 8.00764L33.333 8.14173L30.761 9.42728L30.7592 9.42821C30.7477 9.43398 30.74 9.43456 30.7334 9.43399C30.7254 9.43329 30.7166 9.43035 30.7092 9.42572L31.1986 6.71737L31.257 6.39396L31.016 6.17058L28.9511 4.25724C28.9532 4.25678 28.9557 4.25634 28.9584 4.25596L28.9589 4.2559L31.8339 3.85733ZM36.4958 9.44004L37.0862 9.33336C37.1748 9.8255 36.6297 10.1923 36.1732 9.96397L36.4958 9.44004Z" fill="white" stroke="#7AC751" stroke-width="1.2"/>
    <path d="M45.9384 3.85733L46.2458 3.81471L46.3886 3.53926L47.6735 1.06195C47.6735 1.06191 47.6735 1.06187 47.6736 1.06183C47.6751 1.05886 47.6759 1.0583 47.6755 1.05872C47.6752 1.05899 47.6754 1.05866 47.6768 1.05787C47.6803 1.0559 47.6899 1.0521 47.7046 1.05215C47.7194 1.05219 47.7299 1.0561 47.7346 1.05874L47.7365 1.06001L47.737 1.06037L47.737 1.06042L47.7372 1.06064L47.7385 1.06282L47.7385 1.06284L49.0229 3.53926L49.1658 3.81471L49.4731 3.85733L52.3481 4.2559L52.3485 4.25596C52.3513 4.25634 52.3537 4.25678 52.3558 4.25724L50.291 6.17058L50.0499 6.39396L50.1084 6.71737L50.5976 9.42506C50.5903 9.42955 50.5814 9.43251 50.5731 9.43324C50.566 9.43387 50.5577 9.43316 50.5461 9.42733L50.546 9.42728L47.974 8.14173L47.7058 8.00764L47.4375 8.14173L44.8656 9.42728L44.8637 9.42821C44.8523 9.43398 44.8445 9.43456 44.838 9.43399C44.8299 9.43329 44.8212 9.43035 44.8138 9.42572L45.3031 6.71737L45.3616 6.39396L45.1205 6.17058L43.0557 4.25724C43.0578 4.25678 43.0602 4.25634 43.063 4.25596L43.0634 4.2559L45.9384 3.85733ZM50.6004 9.44004L51.1908 9.33336C51.2793 9.8255 50.7342 10.1923 50.2777 9.96397L50.6004 9.44004Z" fill="white" stroke="#7AC751" stroke-width="1.2"/>
    <path d="M60.043 3.85733L60.3503 3.81471L60.4932 3.53926L61.7781 1.06195C61.7781 1.06191 61.7781 1.06187 61.7781 1.06183C61.7797 1.05886 61.7804 1.0583 61.78 1.05872C61.7798 1.05899 61.78 1.05866 61.7814 1.05787C61.7849 1.0559 61.7945 1.0521 61.8092 1.05215C61.8239 1.05219 61.8344 1.0561 61.8391 1.05874L61.8411 1.06001L61.8415 1.06037L61.8416 1.06042L61.8417 1.06064L61.843 1.06282L61.843 1.06284L63.1274 3.53926L63.2703 3.81471L63.5777 3.85733L66.4527 4.2559L66.4531 4.25596C66.4559 4.25634 66.4583 4.25678 66.4604 4.25724L64.3956 6.17058L64.1545 6.39396L64.2129 6.71737L64.7022 9.42506C64.6948 9.42955 64.686 9.43251 64.6777 9.43324C64.6705 9.43387 64.6623 9.43316 64.6506 9.42733L64.6505 9.42728L62.0786 8.14173L61.8103 8.00764L61.5421 8.14173L58.9701 9.42728L58.9683 9.42821C58.9568 9.43398 58.9491 9.43456 58.9425 9.43399C58.9345 9.43329 58.9257 9.43035 58.9183 9.42572L59.4077 6.71737L59.4661 6.39396L59.2251 6.17058L57.1602 4.25724C57.1624 4.25678 57.1648 4.25634 57.1676 4.25596L57.168 4.2559L60.043 3.85733ZM64.7049 9.44004L65.2953 9.33336C65.3839 9.8255 64.8388 10.1923 64.3823 9.96397L64.7049 9.44004Z" fill="white" stroke="#CCCCCC" stroke-width="1.2"/>
    </symbol>
    <symbol id="eye" viewBox="0 0 20 20">
    <g clip-path="url(#clip0_2_384)">
    <path d="M18.8992 7.69511C17.6439 5.64829 14.7885 2.21423 9.77697 2.21423C4.76546 2.21423 1.91006 5.64829 0.654754 7.69511C0.266692 8.32351 0.0611382 9.0477 0.0611382 9.7865C0.0611382 10.5253 0.266692 11.2495 0.654754 11.8779C1.91006 13.9247 4.76546 17.3588 9.77697 17.3588C14.7885 17.3588 17.6439 13.9247 18.8992 11.8779C19.2872 11.2495 19.4928 10.5253 19.4928 9.7865C19.4928 9.0477 19.2872 8.32351 18.8992 7.69511ZM17.5192 11.0295C16.4412 12.7846 14.001 15.7382 9.77697 15.7382C5.55296 15.7382 3.11276 12.7846 2.0347 11.0295C1.80414 10.656 1.68203 10.2256 1.68203 9.7865C1.68203 9.34742 1.80414 8.91701 2.0347 8.5435C3.11276 6.78839 5.55296 3.83484 9.77697 3.83484C14.001 3.83484 16.4412 6.78514 17.5192 8.5435C17.7498 8.91701 17.8719 9.34742 17.8719 9.7865C17.8719 10.2256 17.7498 10.656 17.5192 11.0295Z" fill="#757575"/>
    <path d="M9.77692 5.73499C8.97655 5.73499 8.19415 5.9726 7.52866 6.41779C6.86317 6.86297 6.34449 7.49573 6.0382 8.23605C5.73191 8.97636 5.65177 9.79099 5.80792 10.5769C5.96406 11.3628 6.34948 12.0847 6.91543 12.6513C7.48138 13.218 8.20244 13.6038 8.98744 13.7602C9.77243 13.9165 10.5861 13.8362 11.3255 13.5296C12.065 13.2229 12.697 12.7037 13.1417 12.0374C13.5863 11.3711 13.8237 10.5878 13.8237 9.78649C13.8224 8.71236 13.3956 7.68259 12.637 6.92307C11.8784 6.16354 10.8498 5.73627 9.77692 5.73499ZM9.77692 12.2174C9.2967 12.2174 8.82726 12.0748 8.42796 11.8077C8.02867 11.5406 7.71746 11.1609 7.53369 10.7168C7.34991 10.2726 7.30183 9.7838 7.39552 9.31225C7.4892 8.8407 7.72045 8.40755 8.06002 8.06758C8.39959 7.72762 8.83223 7.49609 9.30323 7.4023C9.77423 7.3085 10.2624 7.35664 10.7061 7.54063C11.1498 7.72462 11.529 8.03619 11.7958 8.43595C12.0626 8.83571 12.205 9.30571 12.205 9.78649C12.205 10.4312 11.9492 11.0495 11.4938 11.5054C11.0385 11.9613 10.4209 12.2174 9.77692 12.2174Z" fill="#757575"/>
    </g>
    <defs>
    <clipPath id="clip0_2_384">
    <rect width="19.4245" height="19.4472" fill="white" transform="translate(0.0647087 0.0628662)"/>
    </clipPath>
    </defs>
    </symbol>
    <symbol id="rotate" viewBox="0 0 27 27">
    <path d="M7.86464 7.43722C8.62512 6.61688 9.50914 6.00026 10.4509 5.57618C13.5807 4.16691 17.3897 4.89416 19.7576 7.59891L21.3933 6.19766C21.4842 6.11981 21.63 6.19183 21.6387 6.31382L22.0455 11.8018C22.0505 11.8932 21.9662 11.9654 21.88 11.9436L16.5301 10.696C16.4082 10.6653 16.3625 10.5131 16.4534 10.4353L18.0858 9.03678C16.5209 7.26501 14.1035 6.67947 11.9755 7.35998C11.171 7.6158 10.4104 8.04792 9.75614 8.67029C8.85664 9.52531 8.29282 10.6218 8.06947 11.7812C7.95174 12.3998 7.34542 12.7955 6.73261 12.6507C6.14944 12.5143 5.78532 11.937 5.90071 11.3485C6.17247 9.91684 6.82964 8.55465 7.86464 7.43722ZM19.3205 14.4739C19.1032 15.6338 18.5361 16.7331 17.6338 17.5848C16.9764 18.21 16.213 18.6389 15.4145 18.8952C13.2865 19.5757 10.8659 18.9929 9.3042 17.2184L10.9366 15.8199C11.0275 15.742 10.979 15.5866 10.8599 15.5591L5.5072 14.3083C5.41781 14.2892 5.33343 14.3615 5.34169 14.4501L5.7457 19.9348C5.75718 20.0601 5.90028 20.1288 5.99115 20.051L7.62682 18.6497C9.99149 21.3573 13.8033 22.0878 16.9335 20.6725C17.8753 20.2484 18.7565 19.6285 19.5198 18.8114C20.5576 17.6972 21.2147 16.335 21.4865 14.9034C21.5991 14.3117 21.2378 13.7376 20.6546 13.6012C20.0446 13.4597 19.4383 13.8553 19.3205 14.4739Z" fill="#757575" stroke="white" stroke-width="0.3"/>
    </symbol>
    <symbol id="shop" viewBox="0 0 20 21">
    <path d="M18.6798 16.1669H17.0611V14.5463C17.0611 14.3314 16.9758 14.1253 16.824 13.9733C16.6723 13.8213 16.4664 13.736 16.2517 13.736C16.0371 13.736 15.8312 13.8213 15.6794 13.9733C15.5277 14.1253 15.4424 14.3314 15.4424 14.5463V16.1669H13.8237C13.609 16.1669 13.4032 16.2522 13.2514 16.4042C13.0996 16.5562 13.0143 16.7623 13.0143 16.9772C13.0143 17.1921 13.0996 17.3982 13.2514 17.5501C13.4032 17.7021 13.609 17.7875 13.8237 17.7875H15.4424V19.4081C15.4424 19.623 15.5277 19.8291 15.6794 19.981C15.8312 20.133 16.0371 20.2184 16.2517 20.2184C16.4664 20.2184 16.6723 20.133 16.824 19.981C16.9758 19.8291 17.0611 19.623 17.0611 19.4081V17.7875H18.6798C18.8945 17.7875 19.1003 17.7021 19.2521 17.5501C19.4039 17.3982 19.4892 17.1921 19.4892 16.9772C19.4892 16.7623 19.4039 16.5562 19.2521 16.4042C19.1003 16.2522 18.8945 16.1669 18.6798 16.1669Z" fill="#757575"/>
    <path d="M17.0611 5.63293H14.6331C14.6331 4.3435 14.1214 3.10688 13.2107 2.19511C12.3 1.28334 11.0649 0.771118 9.77694 0.771118C8.48902 0.771118 7.25385 1.28334 6.34315 2.19511C5.43245 3.10688 4.92082 4.3435 4.92082 5.63293H2.49277C1.84881 5.63293 1.23122 5.88904 0.77587 6.34492C0.320521 6.80081 0.0647087 7.41912 0.0647087 8.06383L0.0647087 16.1668C0.0659938 17.241 0.492761 18.2707 1.2514 19.0303C2.01003 19.7898 3.0386 20.2171 4.11147 20.2184H11.3956C11.6103 20.2184 11.8162 20.133 11.9679 19.981C12.1197 19.8291 12.205 19.623 12.205 19.4081C12.205 19.1931 12.1197 18.987 11.9679 18.8351C11.8162 18.6831 11.6103 18.5978 11.3956 18.5978H4.11147C3.46751 18.5978 2.84992 18.3416 2.39458 17.8858C1.93923 17.4299 1.68341 16.8116 1.68341 16.1668V8.06383C1.68341 7.84893 1.76868 7.64282 1.92047 7.49086C2.07225 7.3389 2.27811 7.25353 2.49277 7.25353H4.92082V8.87413C4.92082 9.08904 5.0061 9.29514 5.15788 9.4471C5.30966 9.59906 5.51552 9.68444 5.73018 9.68444C5.94483 9.68444 6.15069 9.59906 6.30248 9.4471C6.45426 9.29514 6.53953 9.08904 6.53953 8.87413V7.25353H13.0143V8.87413C13.0143 9.08904 13.0996 9.29514 13.2514 9.4471C13.4032 9.59906 13.609 9.68444 13.8237 9.68444C14.0384 9.68444 14.2442 9.59906 14.396 9.4471C14.5478 9.29514 14.6331 9.08904 14.6331 8.87413V7.25353H17.0611C17.2758 7.25353 17.4816 7.3389 17.6334 7.49086C17.7852 7.64282 17.8705 7.84893 17.8705 8.06383V12.1153C17.8705 12.3302 17.9557 12.5363 18.1075 12.6883C18.2593 12.8403 18.4652 12.9256 18.6798 12.9256C18.8945 12.9256 19.1003 12.8403 19.2521 12.6883C19.4039 12.5363 19.4892 12.3302 19.4892 12.1153V8.06383C19.4892 7.41912 19.2334 6.80081 18.778 6.34492C18.3227 5.88904 17.7051 5.63293 17.0611 5.63293ZM6.53953 5.63293C6.53953 4.77331 6.88061 3.94889 7.48774 3.34105C8.09488 2.7332 8.91833 2.39172 9.77694 2.39172C10.6356 2.39172 11.459 2.7332 12.0661 3.34105C12.6733 3.94889 13.0143 4.77331 13.0143 5.63293H6.53953Z" fill="#757575"/>
    </symbol>
    <symbol id="page" viewBox="0 0 24 24">
    <path d="M12 0C9.62662 0 7.30655 0.703788 5.33316 2.02236C3.35977 3.34094 1.8217 5.21508 0.91345 7.4078C0.0051994 9.60051 -0.23244 12.0133 0.230582 14.3411C0.693604 16.6688 1.83649 18.807 3.51472 20.4853C5.19295 22.1635 7.33115 23.3064 9.65892 23.7694C11.9867 24.2324 14.3995 23.9948 16.5922 23.0865C18.7849 22.1783 20.6591 20.6402 21.9776 18.6668C23.2962 16.6934 24 14.3734 24 12C23.9964 8.81851 22.7309 5.76838 20.4813 3.51873C18.2316 1.26908 15.1815 0.00362976 12 0ZM12 20.5714C10.3047 20.5714 8.64753 20.0687 7.23797 19.1269C5.82841 18.185 4.72979 16.8464 4.08104 15.2801C3.43229 13.7139 3.26254 11.9905 3.59327 10.3278C3.924 8.6651 4.74035 7.13782 5.93909 5.93908C7.13782 4.74035 8.6651 3.924 10.3278 3.59327C11.9905 3.26254 13.7139 3.43228 15.2801 4.08103C16.8464 4.72978 18.185 5.8284 19.1269 7.23797C20.0687 8.64753 20.5714 10.3047 20.5714 12C20.5687 14.2724 19.6648 16.451 18.0579 18.0579C16.451 19.6648 14.2724 20.5687 12 20.5714Z" fill="#CCCCCC"/>
    <circle cx="12" cy="12" r="4" fill="#CCCCCC"/>
    </symbol>
    <symbol id="active" viewBox="0 0 24 24">
    <path d="M12 0C9.62662 0 7.30655 0.703788 5.33316 2.02236C3.35977 3.34094 1.8217 5.21508 0.91345 7.4078C0.0051994 9.60051 -0.23244 12.0133 0.230582 14.3411C0.693604 16.6688 1.83649 18.807 3.51472 20.4853C5.19295 22.1635 7.33115 23.3064 9.65892 23.7694C11.9867 24.2324 14.3995 23.9948 16.5922 23.0865C18.7849 22.1783 20.6591 20.6402 21.9776 18.6668C23.2962 16.6934 24 14.3734 24 12C23.9964 8.81851 22.7309 5.76838 20.4813 3.51873C18.2316 1.26908 15.1815 0.00362976 12 0ZM12 20.5714C10.3047 20.5714 8.64753 20.0687 7.23797 19.1269C5.82841 18.185 4.72979 16.8464 4.08104 15.2801C3.43229 13.7139 3.26254 11.9905 3.59327 10.3278C3.924 8.6651 4.74035 7.13782 5.93909 5.93908C7.13782 4.74035 8.6651 3.924 10.3278 3.59327C11.9905 3.26254 13.7139 3.43228 15.2801 4.08103C16.8464 4.72978 18.185 5.8284 19.1269 7.23797C20.0687 8.64753 20.5714 10.3047 20.5714 12C20.5687 14.2724 19.6648 16.451 18.0579 18.0579C16.451 19.6648 14.2724 20.5687 12 20.5714Z" fill="#7AC751"/>
    <circle cx="12" cy="12" r="4" fill="#7AC751"/>
    </symbol>
    <symbol id="iputicon" viewBox="0 0 8 5">
    <path d="M0.694365 0.2119C0.811432 0.0948333 1.0012 0.09473 1.1184 0.211669L3.64328 2.73105C3.76038 2.8479 3.94997 2.8479 4.06708 2.73105L6.59195 0.21167C6.70915 0.0947304 6.89892 0.0948339 7.01599 0.211901L7.49783 0.693743C7.61499 0.8109 7.61499 1.00085 7.49783 1.11801L4.06731 4.54853C3.95015 4.66568 3.7602 4.66568 3.64304 4.54853L0.212523 1.11801C0.095366 1.00085 0.095366 0.810899 0.212523 0.693742L0.694365 0.2119Z" fill="#555555"/>
    </symbol>
    <symbol id="heart" viewBox="0 0 24 24">
    <path d="M11.777 21.1556L3.53614 12.9051C2.44321 11.811 1.82915 10.3271 1.82906 8.77973C1.82897 7.23237 2.44285 5.74836 3.53565 4.65414C4.62845 3.55993 6.11066 2.94516 7.65621 2.94507C9.20175 2.94498 10.684 3.55958 11.777 4.65366C12.8704 3.56081 14.3523 2.94702 15.8974 2.94702C17.4424 2.94702 18.9243 3.56081 20.0178 4.65366C21.1089 5.74865 21.7216 7.2322 21.7216 8.7789C21.7216 10.3256 21.1089 11.8092 20.0178 12.9041L11.777 21.1556ZM7.65607 4.88994C6.88763 4.88991 6.13644 5.11805 5.49752 5.54548C4.8586 5.97292 4.36064 6.58046 4.06663 7.29126C3.77262 8.00206 3.69577 8.78419 3.84579 9.53873C3.99581 10.2933 4.36597 10.9863 4.90945 11.5302L11.777 18.4058L18.6445 11.5302C19.0389 11.1441 19.3467 10.6783 19.5474 10.1638C19.748 9.64933 19.8369 9.09797 19.8082 8.54641C19.7794 7.99486 19.6337 7.45576 19.3806 6.96499C19.1276 6.47422 18.773 6.04303 18.3405 5.70013C17.9081 5.35722 17.4076 5.11046 16.8725 4.97626C16.3374 4.84206 15.7798 4.8235 15.237 4.92182C14.6941 5.02014 14.1784 5.23308 13.7242 5.54647C13.2699 5.85986 12.8876 6.26652 12.6025 6.73937L11.777 8.07345L10.9514 6.73937C10.6106 6.17057 10.1273 5.70085 9.54921 5.37678C8.97116 5.0527 8.31854 4.88555 7.65607 4.89189V4.88994Z" fill="#757575"/>
    </symbol>
    <symbol id="star" viewBox="0 0 11 11">
    <path d="M3.62609 3.85757L3.93345 3.81496L4.07632 3.5395L5.36119 1.06219C5.36121 1.06215 5.36123 1.06211 5.36125 1.06207C5.3628 1.0591 5.36356 1.05854 5.36316 1.05896C5.36289 1.05924 5.36309 1.05891 5.36449 1.05812C5.368 1.05615 5.37763 1.05235 5.39231 1.05239C5.40705 1.05244 5.41757 1.05634 5.42225 1.05899L5.42422 1.06025L5.42465 1.06062L5.42469 1.06066L5.42486 1.06088L5.42616 1.06306L5.42618 1.06309L6.71058 3.5395L6.85344 3.81496L7.16081 3.85757L10.0358 4.25615L10.0362 4.2562C10.039 4.25659 10.0414 4.25703 10.0435 4.25748L7.97869 6.17083L7.73763 6.3942L7.79607 6.71761L8.28531 9.42531C8.27796 9.42979 8.26911 9.43276 8.2608 9.43348C8.25365 9.43411 8.24541 9.43341 8.23374 9.42757L8.23365 9.42752L5.66171 8.14197L5.39345 8.00789L5.12519 8.14197L2.55325 9.42752L2.5514 9.42845C2.53995 9.43422 2.53219 9.4348 2.52564 9.43423C2.51763 9.43354 2.50884 9.43059 2.50146 9.42597L2.99083 6.71761L3.04927 6.3942L2.8082 6.17083L0.74338 4.25748C0.745483 4.25703 0.747909 4.25659 0.750685 4.2562L0.751103 4.25615L3.62609 3.85757ZM8.28804 9.44028L8.87846 9.3336C8.96701 9.82574 8.42193 10.1925 7.96539 9.96421L8.28804 9.44028Z" fill="white" stroke="#7AC751" stroke-width="1.2"/>    
    </symbol>
    <symbol  id="deactiveStar" viewBox="0 0 12 11">
    <path d="M4.04296 3.85733L4.35032 3.81471L4.49319 3.53926L5.77806 1.06195C5.77808 1.06191 5.7781 1.06187 5.77812 1.06183C5.77967 1.05886 5.78044 1.0583 5.78003 1.05872C5.77976 1.05899 5.77996 1.05866 5.78136 1.05787C5.78487 1.0559 5.7945 1.0521 5.80918 1.05215C5.82392 1.05219 5.83444 1.0561 5.83912 1.05874L5.84109 1.06001L5.84152 1.06037L5.84156 1.06042L5.84173 1.06064L5.84303 1.06282L5.84305 1.06284L7.12745 3.53926L7.27031 3.81471L7.57768 3.85733L10.4527 4.2559L10.4531 4.25596C10.4559 4.25634 10.4583 4.25678 10.4604 4.25724L8.39556 6.17058L8.1545 6.39396L8.21294 6.71737L8.70218 9.42506C8.69483 9.42955 8.68598 9.43251 8.67767 9.43324C8.67052 9.43387 8.66228 9.43316 8.65061 9.42733L8.65052 9.42728L6.07858 8.14173L5.81032 8.00764L5.54206 8.14173L2.97012 9.42728L2.96827 9.42821C2.95682 9.43398 2.94906 9.43456 2.94251 9.43399C2.9345 9.43329 2.92571 9.43035 2.91833 9.42572L3.4077 6.71737L3.46614 6.39396L3.22507 6.17058L1.16025 4.25724C1.16235 4.25678 1.16478 4.25634 1.16756 4.25596L1.16797 4.2559L4.04296 3.85733ZM8.70491 9.44004L9.29533 9.33336C9.38388 9.8255 8.8388 10.1923 8.38226 9.96397L8.70491 9.44004Z" fill="white" stroke="#CCCCCC" stroke-width="1.2"/>
    </symbol>
    <symbol id="arrowpage" viewBox="0 0 14 13">
    <path d="M8.121 0.292787C7.93353 0.480314 7.82821 0.734622 7.82821 0.999786C7.82821 1.26495 7.93353 1.51926 8.121 1.70679L11.413 4.99979L1 5.00679C0.734784 5.00679 0.48043 5.11214 0.292893 5.29968C0.105357 5.48722 0 5.74157 0 6.00679C0 6.272 0.105357 6.52636 0.292893 6.71389C0.48043 6.90143 0.734784 7.00679 1 7.00679L11.414 6.99979L8.121 10.2928C8.02549 10.385 7.94931 10.4954 7.8969 10.6174C7.84449 10.7394 7.8169 10.8706 7.81575 11.0034C7.8146 11.1362 7.8399 11.2678 7.89018 11.3907C7.94046 11.5136 8.01471 11.6253 8.10861 11.7192C8.2025 11.8131 8.31415 11.8873 8.43705 11.9376C8.55994 11.9879 8.69162 12.0132 8.8244 12.012C8.95718 12.0109 9.0884 11.9833 9.2104 11.9309C9.33241 11.8785 9.44275 11.8023 9.535 11.7068L13.121 8.12179C13.3996 7.8432 13.6207 7.51246 13.7715 7.14845C13.9222 6.78444 13.9999 6.39429 13.9999 6.00029C13.9999 5.60628 13.9222 5.21613 13.7715 4.85212C13.6207 4.48811 13.3996 4.15737 13.121 3.87879L9.535 0.292787C9.34747 0.105316 9.09316 0 8.828 0C8.56284 0 8.30853 0.105316 8.121 0.292787Z" fill="white"/>
    </symbol>
    <symbol id="rightarrow" viewBox="0 0 7 12">
    <path d="M5.28299 0.69233L0.635421 5.33989C0.274765 5.70242 0.274765 6.28799 0.635421 6.65052L5.28299 11.2981C5.63061 11.5964 6.14464 11.5964 6.49227 11.2981C6.88175 10.9644 6.92727 10.3769 6.59356 9.98746L2.606 5.99985L6.59361 2.00296C6.95427 1.64042 6.95427 1.05486 6.59361 0.69233C6.23108 0.331674 5.64547 0.331674 5.28299 0.69233Z" fill="white"/>
    </symbol>
    <symbol id="leftArrow" viewBox="0 0 7 12">
    <path d="M1.71702 0.692331L6.36458 5.33989C6.72524 5.70242 6.72524 6.28799 6.36458 6.65052L1.71702 11.2981C1.36939 11.5964 0.855359 11.5964 0.507734 11.2981C0.118249 10.9644 0.0727335 10.3769 0.406437 9.98746L4.394 5.99985L0.40639 2.00296C0.0457334 1.64042 0.0457334 1.05486 0.40639 0.692331C0.768921 0.331675 1.35453 0.331675 1.71702 0.692331Z" fill="white"/>
    </symbol>
    <symbol id="outlinedleft" viewBox="0 0 24 38">
    <path fill-rule="evenodd" clip-rule="evenodd" d="M23.092 34.2413C23.4822 33.8511 23.4826 33.2185 23.0928 32.8279L9.9998 19.7063C9.61031 19.316 9.6103 18.684 9.9998 18.2937L23.0928 5.17211C23.4826 4.78146 23.4822 4.14889 23.092 3.75866L20.0404 0.707106C19.6499 0.316582 19.0168 0.316582 18.6262 0.707107L1.04044 18.2929C0.649921 18.6834 0.649921 19.3166 1.04045 19.7071L18.6262 37.2929C19.0168 37.6834 19.6499 37.6834 20.0404 37.2929L23.092 34.2413Z" fill="#CCCCCC"/>
    </symbol>
    <symbol id="outlinedright" viewBox="0 0 24 38">
    <path fill-rule="evenodd" clip-rule="evenodd" d="M0.907996 3.75866C0.517773 4.14889 0.517429 4.78146 0.907226 5.1721L14.0002 18.2937C14.3897 18.684 14.3897 19.316 14.0002 19.7063L0.907227 32.8279C0.51743 33.2185 0.517773 33.8511 0.907996 34.2413L3.95955 37.2929C4.35008 37.6834 4.98324 37.6834 5.37377 37.2929L22.9596 19.7071C23.3501 19.3166 23.3501 18.6834 22.9596 18.2929L5.37377 0.707104C4.98324 0.316582 4.35008 0.316582 3.95955 0.707108L0.907996 3.75866Z" fill="#CCCCCC"/>
    </symbol>
    <symbol id="tag" viewBox="0 0 14 14">
     <path fill-rule="evenodd" clip-rule="evenodd" d="M6.18207 0.465088C6.70077 0.465088 7.19777 0.673363 7.56461 1.04467L13.1414 6.6894C13.3231 6.87317 13.4672 7.09138 13.5655 7.33154C13.6639 7.57171 13.7145 7.82913 13.7145 8.0891C13.7145 8.34907 13.6639 8.60649 13.5655 8.84666C13.4672 9.08682 13.3231 9.30503 13.1414 9.48881L9.48097 13.1938C9.2994 13.3777 9.08382 13.5236 8.84655 13.6231C8.60927 13.7226 8.35494 13.7738 8.0981 13.7738C7.84126 13.7738 7.58693 13.7226 7.34966 13.6231C7.11238 13.5236 6.8968 13.3777 6.71523 13.1938L1.1384 7.54912C0.956853 7.36534 0.812843 7.14718 0.714595 6.90707C0.616347 6.66697 0.565785 6.40963 0.565796 6.14974V2.44404C0.565796 1.91919 0.771784 1.41583 1.13844 1.04471C1.50511 0.673584 2.0024 0.465088 2.52094 0.465088H6.18207ZM6.18207 1.79592H2.52094C2.35112 1.79592 2.18825 1.8642 2.06817 1.98575C1.94808 2.1073 1.88062 2.27215 1.88062 2.44404V6.14974C1.88062 6.32142 1.94833 6.48644 2.06798 6.60822L7.64481 12.2529C7.89463 12.5058 8.30091 12.5058 8.55073 12.2529L12.2119 8.54724C12.2714 8.48705 12.3186 8.41558 12.3508 8.33691C12.383 8.25825 12.3996 8.17392 12.3996 8.08877C12.3996 8.00361 12.383 7.91929 12.3508 7.84062C12.3186 7.76196 12.2714 7.69049 12.2119 7.6303L6.63503 1.98557C6.57546 1.92531 6.50472 1.87755 6.42689 1.84501C6.34905 1.81247 6.26563 1.79579 6.18141 1.79592H6.18207ZM4.51027 3.12676C4.85898 3.12676 5.19342 3.26697 5.43999 3.51655C5.68657 3.76613 5.8251 4.10463 5.8251 4.45759C5.8251 4.81055 5.68657 5.14905 5.43999 5.39863C5.19342 5.64821 4.85898 5.78842 4.51027 5.78842C4.16156 5.78842 3.82713 5.64821 3.58055 5.39863C3.33397 5.14905 3.19545 4.81055 3.19545 4.45759C3.19545 4.10463 3.33397 3.76613 3.58055 3.51655C3.82713 3.26697 4.16156 3.12676 4.51027 3.12676Z" fill="#7AC751"/>
    </symbol>
    <symbol id="facebook" viewBox="0 0 10 18">
    <path d="M2.96583 17.795V9.84283H0.863098V6.97965H2.96583V4.53413C2.96583 2.61242 4.20792 0.847656 7.06995 0.847656C8.22875 0.847656 9.08562 0.958746 9.08562 0.958746L9.0181 3.63246C9.0181 3.63246 8.14423 3.62396 7.19062 3.62396C6.15852 3.62396 5.99317 4.09959 5.99317 4.88901V6.97965H9.10015L8.96496 9.84283H5.99317V17.795H2.96583Z" fill="#555555"/>
    </symbol>
    <symbol id="twitter" viewBox="0 0 18 15">
    <path d="M17.7737 2.17796C17.1505 2.4468 16.4723 2.64029 15.7737 2.71565C16.499 2.28475 17.0421 1.60402 17.3012 0.80115C16.6206 1.20602 15.875 1.48993 15.0975 1.64027C14.7725 1.29286 14.3795 1.0161 13.9429 0.827235C13.5063 0.638367 13.0355 0.541438 12.5598 0.542489C10.6351 0.542489 9.0872 2.1026 9.0872 4.0171C9.0872 4.28594 9.11979 4.55479 9.17275 4.81345C6.29082 4.66273 3.7205 3.28592 2.01171 1.17794C1.70035 1.70975 1.53719 2.31528 1.5392 2.93154C1.5392 4.13726 2.15225 5.20042 3.08709 5.82569C2.53617 5.80399 1.99815 5.65256 1.5168 5.38372V5.42649C1.5168 7.11491 2.7103 8.51413 4.30096 8.83593C4.0023 8.9135 3.69506 8.95319 3.38649 8.95405C3.16041 8.95405 2.94656 8.93165 2.73067 8.9011C3.17059 10.2779 4.45168 11.2779 5.97717 11.3105C4.78366 12.2454 3.28872 12.7953 1.66547 12.7953C1.37423 12.7953 1.10538 12.7851 0.826355 12.7525C2.3661 13.7403 4.19302 14.3106 6.16047 14.3106C12.5476 14.3106 16.0425 9.01923 16.0425 4.42647C16.0425 4.27576 16.0425 4.12504 16.0323 3.97433C16.7085 3.47941 17.3012 2.86636 17.7737 2.17796Z" fill="#555555"/>
    </symbol>
    <symbol id="istagram" viewBox="0 0 17 17">
    <path d="M8.07435 6.06059C6.59618 6.06059 5.38988 7.26689 5.38988 8.74507C5.38988 10.2232 6.59618 11.4295 8.07435 11.4295C9.55253 11.4295 10.7588 10.2232 10.7588 8.74507C10.7588 7.26689 9.55253 6.06059 8.07435 6.06059ZM16.1258 8.74507C16.1258 7.63342 16.1358 6.53184 16.0734 5.4222C16.011 4.13333 15.717 2.98945 14.7745 2.04697C13.83 1.10247 12.6881 0.810457 11.3992 0.748028C10.2876 0.685598 9.186 0.695667 8.07637 0.695667C6.96472 0.695667 5.86313 0.685598 4.7535 0.748028C3.46463 0.810457 2.32075 1.10448 1.37827 2.04697C0.433766 2.99147 0.141756 4.13333 0.0793265 5.4222C0.0168969 6.53385 0.0269662 7.63543 0.0269662 8.74507C0.0269662 9.85471 0.0168969 10.9583 0.0793265 12.0679C0.141756 13.3568 0.43578 14.5007 1.37827 15.4432C2.32277 16.3877 3.46463 16.6797 4.7535 16.7421C5.86515 16.8045 6.96673 16.7945 8.07637 16.7945C9.18802 16.7945 10.2896 16.8045 11.3992 16.7421C12.6881 16.6797 13.832 16.3857 14.7745 15.4432C15.719 14.4987 16.011 13.3568 16.0734 12.0679C16.1379 10.9583 16.1258 9.85672 16.1258 8.74507ZM8.07435 12.8755C5.78862 12.8755 3.94393 11.0308 3.94393 8.74507C3.94393 6.45934 5.78862 4.61464 8.07435 4.61464C10.3601 4.61464 12.2048 6.45934 12.2048 8.74507C12.2048 11.0308 10.3601 12.8755 8.07435 12.8755ZM12.3739 5.41011C11.8403 5.41011 11.4093 4.97915 11.4093 4.44548C11.4093 3.9118 11.8403 3.48084 12.3739 3.48084C12.9076 3.48084 13.3386 3.9118 13.3386 4.44548C13.3387 4.5722 13.3139 4.69771 13.2655 4.81482C13.2171 4.93192 13.146 5.03833 13.0564 5.12793C12.9668 5.21754 12.8604 5.28859 12.7433 5.33701C12.6262 5.38543 12.5007 5.41027 12.3739 5.41011Z" fill="#555555"/>
    </symbol>
    <symbol id="pinterset" viewBox="0 0 14 18">
    <path d="M0.921172 6.92662C0.921172 6.19391 1.04925 5.5017 1.30165 4.85564C1.5428 4.22813 1.90108 3.6522 2.35739 3.15855C2.81278 2.67137 3.33389 2.25011 3.90568 1.90692C4.49233 1.55201 5.12745 1.28426 5.79113 1.11206C6.46282 0.935681 7.15446 0.846733 7.84892 0.847416C8.92161 0.847416 9.9199 1.07439 10.8457 1.52644C11.7594 1.97025 12.5371 2.65135 13.0975 3.49853C13.6757 4.36026 13.963 5.33501 13.963 6.42182C13.963 7.07353 13.8989 7.71112 13.768 8.33458C13.6395 8.95769 13.4352 9.56273 13.1596 10.1362C12.897 10.6913 12.5536 11.2045 12.1406 11.6591C11.7256 12.1064 11.2229 12.4635 10.6639 12.7082C10.057 12.9742 9.40053 13.1081 8.73796 13.1009C8.27743 13.1009 7.81784 12.9926 7.3639 12.7751C6.90996 12.5585 6.58411 12.2609 6.38822 11.8794C6.31947 12.1441 6.22529 12.5265 6.10003 13.0265C5.97948 13.5257 5.89849 13.8478 5.8627 13.9937C5.82503 14.1388 5.75534 14.3808 5.65363 14.7161C5.58465 14.9641 5.49616 15.2063 5.38899 15.4403L5.06501 16.0751C4.92491 16.3475 4.76828 16.611 4.59601 16.8643C4.42554 17.111 4.21458 17.4058 3.96313 17.7449L3.8228 17.7948L3.72957 17.6931C3.62879 16.626 3.577 15.9875 3.577 15.7765C3.577 15.1521 3.6514 14.4515 3.79832 13.6735C3.94241 12.8966 4.17032 11.9199 4.4764 10.7455C4.78248 9.57208 4.95765 8.88176 5.00474 8.67739C4.78907 8.23758 4.67982 7.66309 4.67982 6.95675C4.67982 6.39263 4.85594 5.86429 5.20911 5.36703C5.56321 4.87165 6.01056 4.62396 6.55303 4.62396C6.96835 4.62396 7.29044 4.76146 7.52118 5.0374C7.75286 5.3124 7.86587 5.65898 7.86587 6.08184C7.86587 6.53013 7.71707 7.17902 7.41758 8.02756C7.1181 8.87705 6.9693 9.51087 6.9693 9.93184C6.9693 10.3585 7.12186 10.7154 7.427 10.9951C7.72813 11.275 8.12636 11.4266 8.53736 11.418C8.91031 11.418 9.25594 11.3332 9.57709 11.1628C9.89322 10.9973 10.1669 10.761 10.3767 10.4724C10.8336 9.84548 11.1594 9.13277 11.3345 8.37696C11.4249 7.97953 11.4946 7.60187 11.5379 7.24682C11.584 6.88989 11.6038 6.55273 11.6038 6.23252C11.6038 5.05812 11.2309 4.14271 10.4897 3.48723C9.74473 2.83175 8.77469 2.50589 7.58145 2.50589C6.22435 2.50589 5.0895 2.94476 4.18068 3.82533C3.27092 4.70307 2.81321 5.81908 2.81321 7.17242C2.81321 7.47097 2.85842 7.75915 2.94412 8.03792C3.02794 8.31575 3.11929 8.53706 3.21818 8.70093C3.31612 8.86198 3.40842 9.01926 3.49224 9.16429C3.577 9.30933 3.62126 9.41292 3.62126 9.47508C3.62126 9.66532 3.57135 9.91301 3.47058 10.2191C3.36604 10.5252 3.24266 10.6777 3.09386 10.6777C3.07974 10.6777 3.02135 10.6674 2.91963 10.6457C2.56737 10.5405 2.24925 10.344 1.99763 10.0759C1.73057 9.79816 1.51982 9.47131 1.37699 9.11343C1.23458 8.75683 1.12365 8.38844 1.04549 8.01249C0.961039 7.65676 0.919306 7.29223 0.921172 6.92662Z" fill="#555555"/>
    </symbol>
</svg>